/* XPM */
static char *folder_xpm[] = {
/* width height num_colors chars_per_pixel */
"    16    16      256            2",
/* colors */
"`` c #000000",
"`. c #141414",
"`# c #424242",
"`a c #161616",
"`b c #040404",
"`c c #2f2f2f",
"`d c #5e5e5e",
"`e c #8a8a8a",
"`f c #b8b8b8",
"`g c #d5d5d5",
"`h c #5a5a5a",
"`i c #4e4e4e",
"`j c #808080",
"`k c #b1b1b1",
"`l c #e0e0e0",
"`m c #f8f8f8",
"`n c #f1f1f1",
"`o c #585959",
"`p c #101a1f",
"`q c #080808",
"`r c #e4e4e4",
"`s c #ffffff",
"`t c #fefefe",
"`u c #fdfdfd",
"`v c #fafafa",
"`w c #f3f3f3",
"`x c #e2e2e2",
"`y c #ced1d2",
"`z c #bcccd3",
"`A c #a0c5d5",
"`B c #86bfda",
"`C c #6dc3ee",
"`D c #439ccb",
"`E c #fbfbfb",
"`F c #f5f5f5",
"`G c #eaeaea",
"`H c #d3d4d4",
"`I c #cdd2d4",
"`J c #c2d2d6",
"`K c #b4d2dc",
"`L c #abdbeb",
"`M c #9ce0f9",
"`N c #87d7f7",
"`O c #79cff6",
"`P c #6ec8f5",
"`Q c #59bef5",
"`R c #3076a0",
"`S c #c9cbcc",
"`T c #bed3da",
"`U c #c2dde6",
"`V c #d0f1fb",
"`W c #c9f0fc",
"`X c #c1edfb",
"`Y c #b5e9fb",
"`Z c #a6e3fa",
"`0 c #96dbf8",
"`1 c #85d3f7",
"`2 c #75caf6",
"`3 c #69c2f4",
"`4 c #54b8f4",
"`5 c #1f5272",
"`6 c #f0f0f0",
"`7 c #b6c9d1",
"`8 c #c1ecfb",
".` c #cbeffc",
".. c #cff0fc",
".# c #c1ebfb",
".a c #b4e6fb",
".b c #a4dff9",
".c c #93d7f8",
".d c #81cef7",
".e c #71c4f5",
".f c #64bcf4",
".g c #4eb0f4",
".h c #123148",
".i c #aecbd9",
".j c #bde9fb",
".k c #c7ecfc",
".l c #cceefc",
".m c #bde8fb",
".n c #afe2fa",
".o c #9fdaf9",
".p c #8dd1f8",
".q c #7cc7f6",
".r c #6bbdf5",
".s c #5fb4f4",
".t c #48a8f3",
".u c #091b2d",
".v c #dfdfdf",
".w c #a8d1e6",
".x c #b4e3fa",
".y c #bde6fb",
".z c #c0e7fb",
".A c #b3e1fa",
".B c #a6dbfa",
".C c #96d3f9",
".D c #85c9f7",
".E c #74bff6",
".F c #64b5f5",
".G c #59acf4",
".H c #439ef3",
".I c #030a11",
".J c #cfd0d0",
".K c #a3d7f8",
".L c #a6dafa",
".M c #aeddfa",
".N c #b0defa",
".O c #addcfa",
".P c #a5d8f9",
".Q c #98d1f9",
".R c #8ac9f8",
".S c #7abff7",
".T c #6ab5f6",
".U c #5cabf4",
".V c #54a4f4",
".W c #3c93f1",
".X c #cbcfd3",
".Y c #8fccf8",
".Z c #95cff9",
".0 c #9bd1f9",
".1 c #9dd2f9",
".2 c #9ad0f9",
".3 c #93ccf8",
".4 c #88c5f8",
".5 c #7bbdf7",
".6 c #6db3f6",
".7 c #5faaf5",
".8 c #53a0f3",
"#` c #4e9bf3",
"#. c #3382e6",
"## c #c6cfd7",
"#a c #7abef7",
"#b c #81c1f8",
"#c c #86c3f8",
"#d c #88c3f8",
"#e c #85c1f8",
"#f c #7fbdf7",
"#g c #76b6f6",
"#h c #6aaff6",
"#i c #5fa6f5",
"#j c #539df3",
"#k c #4c96f2",
"#l c #4991f1",
"#m c #2c70ce",
"#n c #c1cdda",
"#o c #67aff6",
"#p c #6eb2f7",
"#q c #71b3f7",
"#r c #72b3f7",
"#s c #70b0f7",
"#t c #6bacf6",
"#u c #63a6f5",
"#v c #599ef3",
"#w c #4e94ef",
"#x c #458aeb",
"#y c #4183e7",
"#z c #3c7be0",
"#A c #244c95",
"#B c #bdccdc",
"#C c #57a0f5",
"#D c #5ba2f6",
"#E c #5ea2f5",
"#F c #5da0f4",
"#G c #5a9cf2",
"#H c #5495ee",
"#I c #4b8ce9",
"#J c #4180e1",
"#K c #2f61b2",
"#L c #1e4179",
"#M c #0f2242",
"#N c #02060d",
"#O c #111111",
"#P c #bdccde",
"#Q c #4b92f2",
"#R c #498eee",
"#S c #4789ea",
"#T c #4382e2",
"#U c #3364b2",
"#V c #214278",
"#W c #102240",
"#X c #02050c",
"#Y c #8896aa",
"#Z c #2f61af",
"#0 c #1e4075",
"#1 c #0f203d",
"#2 c #02050a",
"#3 c #000000",
"#4 c #000000",
"#5 c #000000",
"#6 c #000000",
"#7 c #000000",
"#8 c #000000",
"a` c #000000",
"a. c #000000",
"a# c #000000",
"aa c #000000",
"ab c #000000",
"ac c #000000",
"ad c #000000",
"ae c #000000",
"af c #000000",
"ag c #000000",
"ah c #000000",
"ai c #000000",
"aj c #000000",
"ak c #000000",
"al c #000000",
"am c #000000",
"an c #000000",
"ao c #000000",
"ap c #000000",
"aq c #000000",
"ar c #000000",
"as c #000000",
"at c #000000",
"au c #000000",
"av c #000000",
"aw c #000000",
"ax c #000000",
"ay c #000000",
"az c #000000",
"aA c #000000",
"aB c #000000",
"aC c #000000",
"aD c #000000",
"aE c #000000",
"aF c #000000",
"aG c #000000",
"aH c #000000",
"aI c #000000",
"aJ c #000000",
"aK c #000000",
"aL c #000000",
"aM c #000000",
"aN c #000000",
"aO c #000000",
"aP c #000000",
"aQ c #000000",
"aR c #000000",
"aS c #000000",
"aT c #000000",
"aU c #000000",
"aV c #000000",
"aW c #000000",
"aX c #000000",
"aY c #000000",
"aZ c #000000",
"a0 c #000000",
"a1 c #000000",
"a2 c #000000",
"a3 c #000000",
"a4 c #000000",
"a5 c #000000",
"a6 c #000000",
"a7 c #000000",
"a8 c #000000",
/* pixels */
"`````````````````````````.`#`a``",
"```b`c`d`e`f`g`h`i`j`k`l`m`n`o`p",
"`q`r`s`s`s`t`u`v`w`x`y`z`A`B`C`D",
"`a`t`E`F`G`H`I`J`K`L`M`N`O`P`Q`R",
"`a`m`S`T`U`V`W`X`Y`Z`0`1`2`3`4`5",
"`a`6`7`8.`...`.#.a.b.c.d.e.f.g.h",
"`a`G.i.j.k.l.k.m.n.o.p.q.r.s.t.u",
"`a.v.w.x.y.z.y.A.B.C.D.E.F.G.H.I",
"`a.J.K.L.M.N.O.P.Q.R.S.T.U.V.W``",
"`a.X.Y.Z.0.1.2.3.4.5.6.7.8#`#.``",
"`a###a#b#c#d#e#f#g#h#i#j#k#l#m``",
"`a#n#o#p#q#r#s#t#u#v#w#x#y#z#A``",
"`a#B#C#D#E#F#G#H#I#J#K#L#M#N````",
"#O#P#Q#R#S#T#U#V#W#X````````````",
"``#Y#Z#0#1#2````````````````````",
"````````````````````````````````"
};
