/* XPM */
static char *configure_xpm[] = {
/* width height num_colors chars_per_pixel */
"    48    48      256            2",
/* colors */
"`` c #000000",
"`. c #8c8a00",
"`# c #bcbe0c",
"`a c #cc8218",
"`b c #d49e0c",
"`c c #744614",
"`d c #ec8b23",
"`e c #cc9048",
"`f c #342b24",
"`g c #a4a200",
"`h c #dcde0f",
"`i c #ac6820",
"`j c #cc920c",
"`k c #cc9e6c",
"`l c #ecca00",
"`m c #ec9e28",
"`n c #9c8a74",
"`o c #7c660c",
"`p c #54320d",
"`q c #dc811a",
"`r c #241700",
"`s c #a49e94",
"`t c #ec9827",
"`u c #c47418",
"`v c #ccce10",
"`w c #94591a",
"`x c #ffb042",
"`y c #ecee11",
"`z c #dc8614",
"`A c #ac820c",
"`B c #dc9024",
"`C c #54421c",
"`D c #acaeac",
"`E c #141311",
"`F c #7c5624",
"`G c #443614",
"`H c #f4be4c",
"`I c #ec9220",
"`J c #dc8e3c",
"`K c #eca23c",
"`L c #bc824c",
"`M c #ece019",
"`N c #24221c",
"`O c #cc8614",
"`P c #ccb614",
"`Q c #d47a14",
"`R c #d4c914",
"`S c #bcae0c",
"`T c #946224",
"`U c #ff982f",
"`V c #dc892f",
"`W c #cc9359",
"`X c #ac762c",
"`Y c #eca858",
"`Z c #bca68c",
"`0 c #c47a24",
"`1 c #bc961c",
"`2 c #844e14",
"`3 c #d4d614",
"`4 c #dc9624",
"`5 c #64461c",
"`6 c #140c00",
"`7 c #c4c600",
"`8 c #f48e21",
".` c #e4d614",
".. c #ec9a40",
".# c #94720c",
".a c #a4950c",
".b c #cc7e24",
".c c #442a0c",
".d c #d4981c",
".e c #dcb254",
".f c #eca721",
".g c #a4927c",
".h c #643e14",
".i c #e4821a",
".j c #a4a6a4",
".k c #c47524",
".l c #1c1a17",
".m c #4c3a14",
".n c #342614",
".o c #74521c",
".p c #bca614",
".q c #e4e614",
".r c #f4b63c",
".s c #e4871a",
".t c #bcaea4",
".u c #8c580c",
".v c #ffce5c",
".w c #f4aa3c",
".x c #bc9264",
".y c #ece812",
".z c #e4ae20",
".A c #a4621c",
".B c #cc9a64",
".C c #0c0b00",
".D c #9c860c",
".E c #e4a644",
".F c #ec8e2c",
".G c #3c3224",
".H c #e4e200",
".I c #bc6e1c",
".J c #cc922c",
".K c #543b21",
".L c #dc8224",
".M c #281e0c",
".N c #f4962c",
".O c #d4d100",
".P c #f4f61c",
".Q c #c47e34",
".R c #dc8e34",
".S c #1c1300",
".T c #ec922d",
".U c #644a1c",
".V c #ccc912",
".W c #dca81c",
".X c #3c2c18",
".Y c #aca614",
".Z c #b06e24",
".0 c #dca46c",
".1 c #e4c420",
".2 c #ffa034",
".3 c #a45e1c",
".4 c #f4ee11",
".5 c #805e0c",
".6 c #3c362c",
".7 c #ffc757",
".8 c #cc862c",
"#` c #bcba0c",
"#. c #ccaa8c",
"## c #8c760c",
"#a c #b48e3c",
"#b c #b48a3c",
"#c c #ecda44",
"#d c #bc7322",
"#e c #bcb6b4",
"#f c #c48614",
"#g c #ac865c",
"#h c #c49460",
"#i c #dc964c",
"#j c #ffa634",
"#k c #e4b719",
"#l c #e4ce2c",
"#m c #b4a200",
"#n c #b49f87",
"#o c #ffa23c",
"#p c #6c4c28",
"#q c #cca684",
"#r c #946a2c",
"#s c #84662c",
"#t c #a4721c",
"#u c #ccc214",
"#v c #b4a8a0",
"#w c #c48a34",
"#x c #bc7a0c",
"#y c #d4963c",
"#z c #945e24",
"#A c #b48a5c",
"#B c #e4da14",
"#C c #a89a8c",
"#D c #e4aa6c",
"#E c #b4967c",
"#F c #d4ba14",
"#G c #9c8e14",
"#H c #d4b28c",
"#I c #7c4914",
"#J c #ac9e14",
"#K c #d4901c",
"#L c #845818",
"#M c #f4a048",
"#N c #2c261c",
"#O c #c4aa8c",
"#P c #c49410",
"#Q c #e49614",
"#R c #ecd420",
"#S c #3c230c",
"#T c #ffb849",
"#U c #a46a24",
"#V c #ac8a0c",
"#W c #dc9e0c",
"#X c #f49e34",
"#Y c #5c4226",
"#Z c #9c621c",
"#0 c #cc7a23",
"#1 c #c4ae94",
"#2 c #d49a58",
"#3 c #6c4a0c",
"#4 c #94870c",
"#5 c #d47e16",
"#6 c #d4924c",
"#7 c #b46a1c",
"#8 c #5c3610",
"a` c #2c1a00",
"a. c #cc7514",
"a# c #e48e1c",
"aa c #b4b2b4",
"ab c #ffc151",
"ac c #d4b21c",
"ad c #e48a2c",
"ae c #d49254",
"af c #8c5218",
"ag c #dcd913",
"ah c #6c4214",
"ai c #d47e24",
"aj c #cc7624",
"ak c #7c5020",
"al c #f4ea14",
"am c #443728",
"an c #d48824",
"ao c #c4b814",
"ap c #c4b8b0",
"aq c #0c0600",
"ar c #c4c20c",
"as c #744a24",
"at c #cc8e1c",
"au c #d4a26c",
"av c #aca294",
"aw c #ec9a34",
"ax c #e4923c",
"ay c #dcca14",
"az c #bcaa9c",
"aA c #1c0e00",
"aB c #4c2e0c",
"aC c #4c3724",
"aD c #c4a214",
"aE c #e48724",
"aF c #ffa83c",
"aG c #e4e114",
"aH c #d4d014",
"aI c #1c1614",
"aJ c #3c2e24",
"aK c #b4aa14",
"aL c #e4c62c",
"aM c #e49a4c",
"aN c #c4921c",
"aO c #e49824",
"aP c #f49224",
"aQ c #f49a3c",
"aR c #aca69c",
"aS c #d49224",
"aT c #e48e30",
"aU c #f4922c",
"aV c #9c6a24",
"aW c #9c5e1c",
"aX c #bc9674",
"aY c #a48e0c",
"aZ c #d49e1c",
"a0 c #ecee1c",
"a1 c #dc8624",
"a2 c #54422c",
"a3 c #d48614",
"a4 c #d47a24",
"a5 c #c4ae0c",
"a6 c #f48e2c",
"a7 c #ac927c",
"a8 c #6c3e14",
/* pixels */
"````````````````````````````````````````````````````````````````````````````````````````````````",
"````````````````````````````````````````````````````````````````````````````````````````````````",
"````````````````````````````````````````````````````````````````````````````````````````````````",
"````````````````````````````````````````````````````````````````````````````````````````````````",
"``````````````````````````af.A`waf`2`ca8#8`p.c#Sa``raA`6`6aqaq``````````````````````````````````",
"````````````````````````.C.k.La1aEaEad`d`d.Fa6aUaUaU.F`daE.L.b`0#d.ZaV`T#L.o.U`C.m.X#N.l````````",
"````````````````````````a`ai.La1aEaEad`d`d.F.FaUaUaU`U`U`U`U.2.2.2.2aFaF`x`x#T#Tab.7.v.eaq``````",
"`````````````````````````p.L.L.LaEaEaEad`d.F.Fa6aUaU`U`U`U#M...2.2.2aFaF`x`x#T#Tabab.7#a````````",
"````````````````````````#I.L.L.La1aEaE#2`V.F.Fa6aUaU.N`UaQapae.2.2.2#jaFaF`x`x#T#Tab.7#s````````",
"`````````````````````````i.L.L.L.LaE.Ravai`d.Fau#6aUaU`UaQap`W`U.2#o`YaFaF`x`x#T#Tabab.K````````",
"````````````````````````#0.L.L.L.LaE#6.gaE`d.F#O.xaUaU.NaQ#e`e`U.2`Y#v#XaFaF`x`x#T#T#T.M````````",
"``````````````````````a`aiai.L.L.LaE.B#gaE`d.F#qaXa6aUaU..aa`V`U.2#D#n.2aFaF`x`x`x#T.E`6````````",
"```````````````````````paiai.L.L.La1#n.Qad`dax.t#n.FaUaU.0#CaP`U`U#H#h.2aFaFaF`x`x`x#w``````````",
"``````````````````````#Iaiaiai.L.La1`saiad`d`k.j#vadaUaU#1#A.N`U`U.t`J.2.2aFaFaF`x`x#r``````````",
"``````````````````````.3aiaiai.L.L`ea7.LaEad#v#A`D`VaUaMaRai`U`U#MaR.T.2.2.2aFaFaF`x`5``````````",
"`````````````````````6#da4aiai.L.L`W#C.LaE#6`saiaz#h.F#O#g`8.N`U.0#E`U.2.2.2#oaFaFaF.n``````````",
"````````````````````a`#0a4aiaiai.Lai.k.LaE`W#gaE#2#v`Z`n.LaU.N`U#..x`U.2.2.2.2aFaFaF.C``````````",
"`````````````````````p#0#0a4aiai.L.L.La1aEaEaEad`d#i`Laia6aUaU.N#O#E`U`U.2.2.2.2aF.R````````````",
"````````````````````#I#0#0a4aiai.L.La1aOadaEad.f`m.F.F.FaUaUaU.NaTaE`U`U`U.2.2.2.2`i````````````",
"````````````````````.A#0#0a4a4aiai.L#k`M#RaO.fal`M.z`I.T.FaUaUaU.N.N`U`U`U`U.2.2.2ak````````````",
"```````````````````6.Iaj#0#0a4aiai.L.1.y.y#R`M`y`R#V.s.F.F.TaUaUaU.N.N`U`U`U`U.2.2aB````````````",
"``````````````````a`.kajaj#0a4anan`B#BaG.y.y.y.y.y.1#Q.f`t.FaUaUaUaU.N.N`U`U`U`U.N`r````````````",
"```````````````````p.kajaj#0#Kagag.`aGag`7`vag.y.y.4al.4aL`t.NaUaUaU.N.N.N`U`U`U`Vaq````````````",
"``````````````````#I.k.kaj#0.dagag`har`7`##`ag.y.y.y`yaG##`a`d.FaUaUaU.N.N.N`U`U#d``````````````",
"``````````````````.3.k.kajaj#0ayag.Var`..#`u`Q#k.P.y.y#4.u`q.s.F.FaUaUaUaU.N.N.Naf``````````````",
"````````````````aq.I.k.kajaj#0aHaH.V`g`Aa.`Q#5a1`M`y.ya5a3.i`d.F.F.FaUaUaUaU.N.N#8``````````````",
"````````````````#S.k.k.k.katac`3aH.V#ma.`Q#5.La1#k`y.y`M.za#.F.F.F.F.F.TaUaUaUaU.M``````````````",
"````````````````ah.k.k.k`a`RaHaHag`7#Pa.#5`q.L.L.W.y.q.y.y#l`t`t.F.F.F.F.TaUaUa1`6``````````````",
"````````````````aW.kajaj`a#uaHaHaG.O`ja.#5.L.L.L.WaGaG.qag.D`a.s`d.F.F.F.F.T.T#d````````````````",
"``````````````.S`uajaj#0#0.bacaH.y.H`ba.`q.L.L.L#FaGaG#4.5.u`Q`qad.F.F.F.F.F.T`w````````````````",
"``````````````aBajaj#0#0#0a4aZaHaG`y`l`Q`z.La1`4.VaG#u`o#0`q.Ladadad`d.F.F.F.Fa8````````````````",
"```````````````w#0#0#0a4a4ai`P.VaHa0.4#W`IadaS`Sagag`R`1`q`qadadad.F.F.F.F.F.F#S````````````````",
"````````````aA.kaiaiaiaiai.d.V.V`vag.yaHaD.p#``3agagag#caO`m`d.F.F.F.F.F.F.F`d.C````````````````",
"``````.n.X`r.hai.L.L.L.L.L`Bao#4ao.VaH`haG`h`3`3.VaHag.a#f`t.F.F.F.F.F.F.F.F#d``````````````````",
"``````.C`f.6a2#p#z.Zai.LaEaEaEai#K.V.VaHaHaHaH.Y#3#f#P#L#5.s.F.F.F.F.T.T.T.Taf``````````````````",
"````````````.C`E#Nam#Yak#Z.kaE.FaO.V.V.aaKaHaH.a#x.i.i`d`d`d.F.T.TaUaUaUaUaU`p``````````````````",
"````````````````````.C.l`fam#Yak#t#J#G.5.i`R.VaY`O`d`8aUaUaUaUaUaUaUaUaUaUaT`r``````````````````",
"``````````````````````````aq`E`NaJaC#Yak#7ataN#Z.s`8`U`U`U`U`U.N.N.N.N.N.N.b````````````````````",
"``````````````````````````````````.CaI#Nam.Kas`w.I`d.2.2.2.2.2.2.2`U`U`U`UaW````````````````````",
"``````````````````````````````````````````.C.l`fam.Kas#U.8aw#j#j#j#j.2.2.2`p````````````````````",
"````````````````````````````````````````````````aq`E`N`faC#Y`F`X#y.w`x`x`K.S````````````````````",
"````````````````````````````````````````````````````````.CaI#N.GaC#p`H.v#b``````````````````````",
"``````````````````````````````````````````````````````````````aq.C`N.J.r`G``````````````````````",
"````````````````````````````````````````````````````````````````````.C.S````````````````````````",
"````````````````````````````````````````````````````````````````````````````````````````````````",
"````````````````````````````````````````````````````````````````````````````````````````````````",
"````````````````````````````````````````````````````````````````````````````````````````````````",
"````````````````````````````````````````````````````````````````````````````````````````````````"
};
