/* XPM */
static char *create_new_xpm[] = {
/* width height num_colors chars_per_pixel */
"    48    48      256            2",
/* colors */
"`` c #000000",
"`. c #b4761c",
"`# c #742a14",
"`a c #d4ae00",
"`b c #84563c",
"`c c #d47655",
"`d c #3c160c",
"`e c #f4ca00",
"`f c #b45a3b",
"`g c #744234",
"`h c #543624",
"`i c #d4aa0c",
"`j c #dcc254",
"`k c #ecb600",
"`l c #ac9200",
"`m c #ac660c",
"`n c #5c220c",
"`o c #b46e0c",
"`p c #1c1600",
"`q c #944224",
"`r c #9c5624",
"`s c #ecca3c",
"`t c #d49274",
"`u c #9c5232",
"`v c #74361f",
"`w c #dcb244",
"`x c #3c2214",
"`y c #744e3c",
"`z c #ecc244",
"`A c #1c0a00",
"`B c #b47a44",
"`C c #ecbe00",
"`D c #c49200",
"`E c #bc6a34",
"`F c #ec9670",
"`G c #9c622c",
"`H c #dcb60c",
"`I c #ac5234",
"`J c #d4865c",
"`K c #ffd600",
"`L c #5c2a19",
"`M c #843619",
"`N c #b46637",
"`O c #843e18",
"`P c #cc6e52",
"`Q c #2c2600",
"`R c #cc9244",
"`S c #944a1c",
"`T c #a45a2c",
"`U c #eca27c",
"`V c #643e2c",
"`W c #ffda54",
"`X c #4c2214",
"`Y c #ffbe1c",
"`Z c #0c0a00",
"`0 c #e4ae00",
"`1 c #2c160c",
"`2 c #bc8a3c",
"`3 c #f4be1d",
"`4 c #c49e00",
"`5 c #c46a4c",
"`6 c #f4d634",
"`7 c #d4a244",
"`8 c #a45234",
".` c #6c2a14",
".. c #c4664c",
".# c #844634",
".a c #a48a00",
".b c #dc7e5c",
".c c #4c1a0c",
".d c #64321f",
".e c #9c664c",
".f c #7c3619",
".g c #2c0e00",
".h c #f4c600",
".i c #e48664",
".j c #8c3a20",
".k c #b46248",
".l c #a44e34",
".m c #74321c",
".n c #ecba00",
".o c #6c2614",
".p c #ac5e24",
".q c #cc764f",
".r c #f4be0c",
".s c #ec9e77",
".t c #e4ba1c",
".u c #8c3e24",
".v c #944a2c",
".w c #e4ae14",
".x c #c4a600",
".y c #6c3a2c",
".z c #140600",
".A c #c47e14",
".B c #dc7a5c",
".C c #f4ca2c",
".D c #bc5e3c",
".E c #744634",
".F c #dca600",
".G c #64260d",
".H c #24160c",
".I c #9c5e1c",
".J c #ecce6c",
".K c #e4926c",
".L c #442a24",
".M c #1c120c",
".N c #b46a4c",
".O c #e4b600",
".P c #ffd614",
".Q c #642a17",
".R c #843a24",
".S c #ffaa84",
".T c #ffe25c",
".U c #4c2a1c",
".V c #a4563c",
".W c #6c321c",
".X c #0c0000",
".Y c #d47a5b",
".Z c #ffd200",
".0 c #b45e44",
".1 c #ecb414",
".2 c #ac9644",
".3 c #a46e34",
".4 c #9c462c",
".5 c #44261c",
".6 c #8c4a14",
".7 c #ac5a3c",
".8 c #843a1a",
"#` c #843f24",
"#. c #ffae84",
"## c #ac6e54",
"#a c #c48264",
"#b c #cca244",
"#c c #d4aa44",
"#d c #f4d43c",
"#e c #b47a34",
"#f c #b47a5c",
"#g c #844a34",
"#h c #8c5e4c",
"#i c #b46e1c",
"#j c #34221c",
"#k c #644634",
"#l c #341e14",
"#m c #e48e64",
"#n c #441e0c",
"#o c #b49a00",
"#p c #c47244",
"#q c #f4ba1c",
"#r c #cc7e5c",
"#s c #ffda6c",
"#t c #c47a2c",
"#u c #ffce00",
"#v c #7c3e27",
"#w c #ffd62c",
"#x c #f4d25c",
"#y c #e49a74",
"#z c #a45a3f",
"#A c #a45e0c",
"#B c #e4be4c",
"#C c #a4561c",
"#D c #240e00",
"#E c #dc8a64",
"#F c #bc623c",
"#G c #d47254",
"#H c #9c4c24",
"#I c #f4a27c",
"#J c #542210",
"#K c #140a00",
"#L c #34160c",
"#M c #cca20c",
"#N c #dc9e3c",
"#O c #e48264",
"#P c #541e0c",
"#Q c #bc6644",
"#R c #9c4a2c",
"#S c #bc6a4c",
"#T c #bc7e64",
"#U c #bc7224",
"#V c #7c2e14",
"#W c #441a0c",
"#X c #b49600",
"#Y c #dc9674",
"#Z c #e4b644",
"#0 c #3c261c",
"#1 c #cc9400",
"#2 c #7c3924",
"#3 c #f4be14",
"#4 c #dca614",
"#5 c #241a14",
"#6 c #ffca14",
"#7 c #ffd634",
"#8 c #bc7614",
"a` c #dcae00",
"a. c #8c462c",
"a# c #7c3214",
"aa c #f49e74",
"ab c #cca60c",
"ac c #ac6e2c",
"ad c #ec8e5c",
"ae c #ac661c",
"af c #9c523c",
"ag c #342600",
"ah c #6c3e2c",
"ai c #c48a3c",
"aj c #ec8664",
"ak c #7c4634",
"al c #24120c",
"am c #8c4a34",
"an c #c47254",
"ao c #b45e3c",
"ap c #5c2613",
"aq c #944627",
"ar c #743a24",
"as c #3c260c",
"at c #1c0e0c",
"au c #ec9a74",
"av c #dcba00",
"aw c #ac5637",
"ax c #d48a64",
"ay c #cc7254",
"az c #cc963c",
"aA c #ffde5c",
"aB c #e4b200",
"aC c #2c1a14",
"aD c #c4a200",
"aE c #a45630",
"aF c #6c2e1a",
"aG c #4c1e0e",
"aH c #b46644",
"aI c #f4c200",
"aJ c #dcaa00",
"aK c #241a00",
"aL c #b46e54",
"aM c #e4ba00",
"aN c #ffda19",
"aO c #642e1c",
"aP c #6c3621",
"aQ c #ac725c",
"aR c #ffde64",
"aS c #ffda24",
"aT c #a45a24",
"aU c #f4a680",
"aV c #542614",
"aW c #140e0c",
"aX c #9c4e34",
"aY c #bc6e54",
"aZ c #000600",
"a0 c #742e14",
"a1 c #ecc200",
"a2 c #c46e4c",
"a3 c #a48e00",
"a4 c #2c1200",
"a5 c #8c4224",
"a6 c #e4b214",
"a7 c #e4966c",
"a8 c #0c0600",
/* pixels */
"````````````````````````````````````aZ`QagagagagagagagagaK``````````````````````````````````````",
"`````````````````````````````````````p`j#x#x#x#x#x#x#x#x.2``````````````````````````````````````",
"`````````````````````````````````````paMaDaDaDaDaDaDaD`a#X``````````````````````````````````````",
"`````````````````````````````````````pav`l#X#X#X#X#X#X.x#X``````````````````````````````````````",
"`````````````````````````````````````pav`l#X#X#X#X#X#X.x#X``````````````````````````````````````",
"````````````````````````````````````asa1a6`4#X#X#X#X#X.x#X`````````h.H``````````````````````````",
"``````````````````````````````aC`gaYad#6`3`3#M#X#X#X#X.xa3````aC##`F.K`baW``````````````````````",
"``````````````````````aZaC.EaY#Oajajad#6`3`Y#qab#X#X#X.x.aa8.Eax.K`F`Fauax`Va8``````````````````",
"``````````````````aCakaY.iajajajajajad#6`3`Y`Y`3ab#X#X.x`4aL#m.K.K`F`Fauau.s#a.L````````````````",
"````````````#lakanajajajajajajajajajad#6`3`Y`Y`Y`3`i#o`H`3#m#m.K.K`F`Fauauaa#I#IaQ#j````````````",
"`````````gan#Oajajajajajajajajajajajad#6`3`Y`Y`3#q.1aJ#3`3#m#m.K.K`F`Fauauaa#I#IaU.s#h.M````````",
"````````akajajajajajajajajajajajajajad#6`3#q.1.waJaJ.FaB.w`J#m.K.K`F`Fauauaa#I#IaUaU.S#y`y``````",
"````````aW.Yajajajajajajajajajajaj.b.q.raJaJaJaJaJaJ.FaB#1.faH#m.K`F`Fauauaa#I#IaUaU.S.S#.`t#5``",
"``````````.Eajajajajajajaj.i.B..`8aq#H.OaJaJa`a`a`a`.FaB`Da##Va5.qa7`Fauauaa#I#IaUaU.S.S#.#fa8``",
"``````````#K.bajajaj.i`c.0aX`q`q`qaq#H`kaJ.w.w.w.w.waJaB#1.fa#a0#V`8#Eauauaa#I#IaUaU.S.S#YaW````",
"`````````````g.B`5awaq`q`q#C#i#i#i#8.AaI.w.wa6a6a6a6a`.OaJ`o`m#A#A#A.8aH`Faa#I#IaUaU.S`U#0``````",
"````````````.Uaq`q`q`q`q`q`B#saRaRaRaR`W.wa6a6a6a6a6a`.t.TaAaAaAaR.J`Oa0a5#r.s#IaUaUaU#k````````",
"`````````Z.##G`P.l`q`q`q`qaqazaN.ha6.O.Oa6a6a6a6a6a6`0a`.OaBaB#u#d`Ga0a0a0#V`u.KaUaU.e``````````",
"```````x.k#G#G`c`c.7`q`q`q`qaq`7.P`C.wa6a6.O.O.O.O.OaB`0a`aJ.h`6.3a0a0a0a0a0a0a#.N#Ta8``````````",
"``a8ah`P#G#G#G`c`c`c#Q.4`q`q`q.v#c.P`Ca6.O.O.O.O.O.OaBaBaB.h#w#e#Va0a0a0a0a0#V.8#Rar````````````",
"al#zay#G#G#G#G`c`c`c`cay.l`q`q`q`u#Z.P`C.O.O.1.1.1.1.OaB.haS`2a#a0a0a0a0a#.4aw.D.Daw````````````",
"at.Vay#G#G#G#G`c`c`c`c`c`c.0aqaqaq`T`z.P`C.n.n.n.n.n.O`eaN#b`O.fa#`M`q`I.D.D.D.D.D.D`1``````````",
"```Z#gay#G#G#G`c`c`c`c`c`c`ca2aE`raT#e`s`K`C.n.n.n.n`eaN`w.I.6`S`8`f.D.D.D.D.D.D.D.DaP``````````",
"``````.y`P#G#G`c`c`c`c`c`c`c`c`c`Nae#iai#d.Za1.n`C`e.P#Bac.p`f.D.D.D.D.D.D.D.D.D.D.DaXa8````````",
"````````.5#S#G`c`c`c`c`c`c`c`c.Y.Y#p#i`.`R#7.Za1`e.r#N`N.D.D.D.D.D.D.D.D.D.D.D.D.D.Dao`1````````",
"``````````.H.k#G`c`c`c`c`c`c`c.Y.Y.B.q#U`.`7.C#4#t#F.D.D.D.D.D.D.D.D.D.D.D.D.D.D.D.D.D.d````````",
"````````````#K#z`c`c`c`c`c`c`c.Y.Y.B.B.Y`E`N#F.D.D.D.D.D.D.D.D.D.D.D.D.D.D.D.D.D.D.D.DaX````````",
"``````````````#Wam`c`c`c`c`c`c.Y.Ya2`u#2.vaw.D.D.D.D.D.D.D.D.D.D.D.D.D.D.D.D.D.D.D.D.Dawat``````",
"``````````````.caG#v`P`c`c`c`Paf.Wap.Ga0aX#2`f.D.D.D.D.D.D.D.D.D.D.D.D.D.D.D.D.Dao`8.dat````````",
"``````````````#P`naG.d`5#zaPaG#W#J.G.`#V`u#2#`ao.D.D.D.D.D.D.D.D.D.D.D.D.D.DaoaXaOa8````````````",
"``````````````#P.`.G#P#W`d#WaG`n.G`#a0a#`u#`.ma..D.D.D.D.D.D.D.D.D.D.D.DaE#``LaV#n``````````````",
"``````````````#P`#.`.G`n#P#Jap.``#a0a0a#`8.u#2aFaX.D.D.D.D.D.D.D.D`f.vaPapap.QaF#J``````````````",
"``````````````aGa0`#.`.`.G.G.``#a0a0#Va#`8a5#`.m.Waw.D.D.D.D.Daw#``LaVap.QaF.m.fap``````````````",
"``````````````aGa0a0`#`#`#`#a0a0a0a0#Va#`8a5.u#2aF`v`f.D`f.v.WaVap.QaF.m.f`M.8.jaV``````````````",
"``````````````.g.`a0a0a0a0a0a0a0a0a0#Va#`8a5a5#``v.Q#v#v`LaV`LaO.W.m.f.8.j.j.j.j#J``````````````",
"`````````````````A.oa0a0a0a0a0a0a0a0#Va#`8`qa5.u#2.W`L`L.QaF.m.f.8.R.u.u.u.u.u.uaG``````````````",
"``````````````````a8`na0a0a0a0a0a0a0#Va#`8`qa5a5#`#2.m.m`v.f.R.u.u.u.u.u.u.u.u.u#W``````````````",
"````````````````````.X.ca0a0a0a0a0a0#Va#`8`qa5a5.u.u.R.R#`.u.u.u.u.u.u.u.u.jaF#L````````````````",
"`````````````````````````d`#a0a0a0a0#Va#`8`q`qa5a5.u.u.u.u.u.u.u.u.u.u`M`X`A````````````````````",
"``````````````````````````#D.`a0a0a0#Va#`8`q`q`q`qa5a5a5.u.u.u.u.uaO#L``````````````````````````",
"````````````````````````````.z.Ga0a0#Va#`8`q`q`q`qa5a5a5.u.u.f`X`A``````````````````````````````",
"``````````````````````````````.X#Pa0#Va#`8`q`q`q`qa5a5.uaF#L````````````````````````````````````",
"```````````````````````````````````da0a#`8`q`q`q`q#2`X#K````````````````````````````````````````",
"````````````````````````````````````a4a0aX`q.uaF`1a8````````````````````````````````````````````",
"```````````````````````````````````````Aar`X`A``````````````````````````````````````````````````",
"````````````````````````````````````````````````````````````````````````````````````````````````",
"````````````````````````````````````````````````````````````````````````````````````````````````",
"````````````````````````````````````````````````````````````````````````````````````````````````"
};
