/* XPM */
static char *log_xpm[] = {
/* width height num_colors chars_per_pixel */
"    32    32      256            2",
/* colors */
"`` c #000000",
"`. c #800000",
"`# c #008000",
"`a c #808000",
"`b c #000080",
"`c c #800080",
"`d c #008080",
"`e c #c0c0c0",
"`f c #c0dcc0",
"`g c #a6caf0",
"`h c #fff0d4",
"`i c #ffe2b1",
"`j c #ffd48e",
"`k c #ffc66b",
"`l c #ffb848",
"`m c #ffaa25",
"`n c #ffaa00",
"`o c #dc9200",
"`p c #b97a00",
"`q c #966200",
"`r c #734a00",
"`s c #503200",
"`t c #ffe3d4",
"`u c #ffc7b1",
"`v c #ffab8e",
"`w c #ff8f6b",
"`x c #ff7348",
"`y c #ff5725",
"`z c #ff5500",
"`A c #dc4900",
"`B c #b93d00",
"`C c #963100",
"`D c #732500",
"`E c #501900",
"`F c #ffd4d4",
"`G c #ffb1b1",
"`H c #ff8e8e",
"`I c #ff6b6b",
"`J c #ff4848",
"`K c #ff2525",
"`L c #fe0000",
"`M c #dc0000",
"`N c #b90000",
"`O c #960000",
"`P c #730000",
"`Q c #500000",
"`R c #ffd4e3",
"`S c #ffb1c7",
"`T c #ff8eab",
"`U c #ff6b8f",
"`V c #ff4873",
"`W c #ff2557",
"`X c #ff0055",
"`Y c #dc0049",
"`Z c #b9003d",
"`0 c #960031",
"`1 c #730025",
"`2 c #500019",
"`3 c #ffd4f0",
"`4 c #ffb1e2",
"`5 c #ff8ed4",
"`6 c #ff6bc6",
"`7 c #ff48b8",
"`8 c #ff25aa",
".` c #ff00aa",
".. c #dc0092",
".# c #b9007a",
".a c #960062",
".b c #73004a",
".c c #500032",
".d c #ffd4ff",
".e c #ffb1ff",
".f c #ff8eff",
".g c #ff6bff",
".h c #ff48ff",
".i c #ff25ff",
".j c #fe00fe",
".k c #dc00dc",
".l c #b900b9",
".m c #960096",
".n c #730073",
".o c #500050",
".p c #f0d4ff",
".q c #e2b1ff",
".r c #d48eff",
".s c #c66bff",
".t c #b848ff",
".u c #aa25ff",
".v c #aa00ff",
".w c #9200dc",
".x c #7a00b9",
".y c #620096",
".z c #4a0073",
".A c #320050",
".B c #e3d4ff",
".C c #c7b1ff",
".D c #ab8eff",
".E c #8f6bff",
".F c #7348ff",
".G c #5725ff",
".H c #5500ff",
".I c #4900dc",
".J c #3d00b9",
".K c #310096",
".L c #250073",
".M c #190050",
".N c #d4d4ff",
".O c #b1b1ff",
".P c #8e8eff",
".Q c #6b6bff",
".R c #4848ff",
".S c #2525ff",
".T c #0000fe",
".U c #0000dc",
".V c #0000b9",
".W c #000096",
".X c #000073",
".Y c #000050",
".Z c #d4e3ff",
".0 c #b1c7ff",
".1 c #8eabff",
".2 c #6b8fff",
".3 c #4873ff",
".4 c #2557ff",
".5 c #0055ff",
".6 c #0049dc",
".7 c #003db9",
".8 c #003196",
"#` c #002573",
"#. c #001950",
"## c #d4f0ff",
"#a c #b1e2ff",
"#b c #8ed4ff",
"#c c #6bc6ff",
"#d c #48b8ff",
"#e c #25aaff",
"#f c #00aaff",
"#g c #0092dc",
"#h c #007ab9",
"#i c #006296",
"#j c #004a73",
"#k c #003250",
"#l c #d4ffff",
"#m c #b1ffff",
"#n c #8effff",
"#o c #6bffff",
"#p c #48ffff",
"#q c #25ffff",
"#r c #00fefe",
"#s c #00dcdc",
"#t c #00b9b9",
"#u c #009696",
"#v c #007373",
"#w c #005050",
"#x c #d4fff0",
"#y c #b1ffe2",
"#z c #8effd4",
"#A c #6bffc6",
"#B c #48ffb8",
"#C c #25ffaa",
"#D c #00ffaa",
"#E c #00dc92",
"#F c #00b97a",
"#G c #009662",
"#H c #00734a",
"#I c #005032",
"#J c #d4ffe3",
"#K c #b1ffc7",
"#L c #8effab",
"#M c #6bff8f",
"#N c #48ff73",
"#O c #25ff57",
"#P c #00ff55",
"#Q c #00dc49",
"#R c #00b93d",
"#S c #009631",
"#T c #007325",
"#U c #005019",
"#V c #d4ffd4",
"#W c #b1ffb1",
"#X c #8eff8e",
"#Y c #6bff6b",
"#Z c #48ff48",
"#0 c #25ff25",
"#1 c #00fe00",
"#2 c #00dc00",
"#3 c #00b900",
"#4 c #009600",
"#5 c #007300",
"#6 c #005000",
"#7 c #e3ffd4",
"#8 c #c7ffb1",
"a` c #abff8e",
"a. c #8fff6b",
"a# c #73ff48",
"aa c #57ff25",
"ab c #55ff00",
"ac c #49dc00",
"ad c #3db900",
"ae c #319600",
"af c #257300",
"ag c #195000",
"ah c #f0ffd4",
"ai c #e2ffb1",
"aj c #d4ff8e",
"ak c #c6ff6b",
"al c #b8ff48",
"am c #aaff25",
"an c #aaff00",
"ao c #92dc00",
"ap c #7ab900",
"aq c #629600",
"ar c #4a7300",
"as c #325000",
"at c #ffffd4",
"au c #ffffb1",
"av c #ffff8e",
"aw c #ffff6b",
"ax c #ffff48",
"ay c #ffff25",
"az c #fefe00",
"aA c #dcdc00",
"aB c #b9b900",
"aC c #969600",
"aD c #737300",
"aE c #505000",
"aF c #f2f2f2",
"aG c #e6e6e6",
"aH c #dadada",
"aI c #cecece",
"aJ c #c2c2c2",
"aK c #b6b6b6",
"aL c #aaaaaa",
"aM c #9e9e9e",
"aN c #929292",
"aO c #868686",
"aP c #7a7a7a",
"aQ c #6e6e6e",
"aR c #626262",
"aS c #565656",
"aT c #4a4a4a",
"aU c #3e3e3e",
"aV c #323232",
"aW c #262626",
"aX c #1a1a1a",
"aY c #0e0e0e",
"aZ c #fffbf0",
"a0 c #a0a0a4",
"a1 c #808080",
"a2 c #ff0000",
"a3 c #00ff00",
"a4 c #ffff00",
"a5 c #0000ff",
"a6 c #ff00ff",
"a7 c #00ffff",
"a8 c #ffffff",
/* pixels */
"````````````````````````````````````````````````````````````````",
"````````````````````###################################f````````",
"``````````````````##aP````````````````````````````aP###f#h``````",
"``````````````````##aRaTaTaTaTaTaTaTaTaTaTaTaTaTaR###f#f#h``````",
"````````````````##aPaTaQaQaQaQaQaQaQaQaQaQaQaQaQaP###f#h````````",
"````````````````##aRaTaQaQaQaQaDaQaQaQaQaQaQaQaR###f#f#h````````",
"``````````````##aPaTaQaQaQaQaDazaDaQaQaQaQaQaQaP###f#h``````````",
"``````````````##aRaTaDaQaQaDazazaDaQaQaQaQaQaR###f#f#h``````````",
"````````````##aPaTazaAaDaDazaDazaDaQaQaQaQaQaP###f#h````````````",
"````````````##aRaTaQaBaAazaDaDazaDaQaDaDaDaR###f#f#h````````````",
"``````````##aPaTaQaQaQaQaQaQaDazaDaDazaAaAaP###f#h``````````````",
"``````````##aRaTaQaQaQaQaQaQaDazaDazaDaDaR###f#f#h``````````````",
"````````##aPaTaQaQaQaQaQaQaQaDazazaDaQaQaP###f#h````````````````",
"````````##aRaTaQaQaQaQaQaQaQaDazaDaQaQaR###f#f#h````````````````",
"````````##aK``aQaQaQaQaQaQaQaQaQaQaQaQaP###f#h``````````````````",
"``````````####aP``aQaQaQaQaQaQaQaQaQaR###f#f#h``````````````````",
"``````````````####aP``aQaQaQaQaQaQaQaP###f#h``#f#h``````````````",
"``````````````````####aP``aQaQaQaQaR###f#f#h``#f#h``````````````",
"``````````````````````####aP``aQaQaP###f#h``#d#d#f#h````````````",
"``````````````````````````####aP``###f#f#h``#d#d#f#h````````````",
"``````````````````````````````#######f#h``#d#d#d#d#f#h``````````",
"````````````````````````````````#h#f#f#h``#d#d#d#d#f#h``````````",
"``````````````````````````````#d````````###b#b#d#d#d#f#h````````",
"``````````````````````````#d#d#d#d#d#b#b#b#####b#b#d#f#h````````",
"``````````````````````#d#d#d#d#d#d#d#d#d#d#b#b#####b#b#f#h``````",
"``````````````````#b#b#d#d#d#d#d#d#d#d#d#d#d#d#b#b#####f#h``````",
"``````````````````#####b#b#d#d#d#d#d#d#d#d#d#d#d#d#f#f#h#h``````",
"``````````````````````#####b#b#d#d#d#d#d#d#d#d#f#f#h#h``````````",
"``````````````````````````#####b#b#d#d#d#d#f#f#h#h``````````````",
"``````````````````````````````#####b#b#f#f#h#h``````````````````",
"``````````````````````````````````#####h#h``````````````````````",
"````````````````````````````````````````````````````````````````"
};
