/* XPM */
static char *open_archive_xpm[] = {
/* width height num_colors chars_per_pixel */
"    48    48      256            2",
/* colors */
"`` c #000000",
"`. c #5482d4",
"`# c #acc2eb",
"`a c #444344",
"`b c #8c8c8c",
"`c c #3462bd",
"`d c #a4a6a4",
"`e c #d4e2ff",
"`f c #646264",
"`g c #acacac",
"`h c #7496db",
"`i c #242624",
"`j c #cccace",
"`k c #848284",
"`l c #9cb6e7",
"`m c #2c429c",
"`n c #5c64b4",
"`o c #4472d3",
"`p c #bcd2f4",
"`q c #8ca6d4",
"`r c #24226c",
"`s c #2c56b4",
"`t c #5c76c4",
"`u c #9ca6d4",
"`v c #0c1234",
"`w c #bcc2c4",
"`x c #8c92bc",
"`y c #4c62b8",
"`z c #2c3287",
"`A c #acb5dc",
"`B c #d4d6d5",
"`C c #7482c4",
"`D c #748ed4",
"`E c #7472a4",
"`F c #f4f2f4",
"`G c #84a2e1",
"`H c #648edc",
"`I c #4452ac",
"`J c #3c6acc",
"`K c #94aee4",
"`L c #2c3a97",
"`M c #849ac4",
"`N c #8c9ed4",
"`O c #ccd6f2",
"`P c #141614",
"`Q c #bcc6e8",
"`R c #6486d8",
"`S c #e4e2e5",
"`T c #3c449c",
"`U c #0c0a1d",
"`V c #b4b6b5",
"`W c #5c7acc",
"`X c #b4caf2",
"`Y c #8ca6e3",
"`Z c #141a4c",
"`0 c #acbae2",
"`1 c #848ec8",
"`2 c #9c9ecc",
"`3 c #9c9b9c",
"`4 c #4c7ad4",
"`5 c #9caed4",
"`6 c #848ab4",
"`7 c #3c3e98",
"`8 c #bcceef",
".` c #b4c2e7",
".. c #4466bc",
".# c #7c9edd",
".a c #5c6ec0",
".b c #2c5ebc",
".c c #445ab4",
".d c #ccdef4",
".e c #bcbebd",
".f c #9caee4",
".g c #0c0c0c",
".h c #3c62c4",
".i c #747474",
".j c #1c2260",
".k c #d4d2d4",
".l c #a4beec",
".m c #242a7c",
".n c #546abc",
".o c #7c8ece",
".p c #7c7ea4",
".q c #446acc",
".r c #343a96",
".s c #8c9edc",
".t c #648adc",
".u c #eceaec",
".v c #94a6dc",
".w c #7c96cc",
".x c #cccce4",
".y c #a4b6e0",
".z c #344aac",
".A c #c4daf4",
".B c #141a44",
".C c #343684",
".D c #dcdedd",
".E c #748ad4",
".F c #849ede",
".G c #c4caec",
".H c #3c4aa4",
".I c #b4bacc",
".J c #6c7abc",
".K c #bcbed4",
".L c #a4a2a4",
".M c #6c6eac",
".N c #000614",
".O c #5c82c9",
".P c #545254",
".Q c #a4b2c4",
".R c #dceaff",
".S c #4c72c4",
".T c #c4d2f1",
".U c #6c72ac",
".V c #141237",
".W c #5462b4",
".X c #ffffff",
".Y c #94b1ec",
".Z c #d4daf4",
".0 c #bccaf4",
".1 c #b4bee4",
".2 c #9ca2b4",
".3 c #b4c6f4",
".4 c #646ab4",
".5 c #3c5abc",
".6 c #2c2a64",
".7 c #000600",
".8 c #9caabc",
"#` c #dce6ff",
"#. c #343634",
"## c #4c4e54",
"#a c #7c7e80",
"#b c #6c6b6c",
"#c c #5c5e5c",
"#d c #545cac",
"#e c #949acc",
"#f c #949eaf",
"#g c #747ab8",
"#h c #949294",
"#i c #b4b2b4",
"#j c #242a64",
"#k c #7c829c",
"#l c #849ed4",
"#m c #6c76c4",
"#n c #c4c5c4",
"#o c #4c52a4",
"#p c #6c84cc",
"#q c #1c1a4c",
"#r c #345abc",
"#s c #444a9c",
"#t c #6c8ad0",
"#u c #7c8ac7",
"#v c #3443a4",
"#w c #94a6cc",
"#x c #3452b4",
"#y c #6472bc",
"#z c #b4b6d8",
"#A c #dcdadc",
"#B c #7c82bc",
"#C c #6c8eda",
"#D c #949ed1",
"#E c #1c1a1c",
"#F c #bcbabc",
"#G c #647ac8",
"#H c #a4a2cc",
"#I c #547ad0",
"#J c #a4b0dc",
"#K c #a4b2e4",
"#L c #2c2e81",
"#M c #3466cc",
"#N c #8c94cc",
"#O c #2c3594",
"#P c #7492dc",
"#Q c #3c6ed4",
"#R c #2c3ea4",
"#S c #8498d4",
"#T c #e4e6f4",
"#U c #0c0e2c",
"#V c #acbeec",
"#W c #8489c4",
"#X c #3c66cc",
"#Y c #7c92dc",
"#Z c #7c9adc",
"#0 c #a4baec",
"#1 c #5c84d4",
"#2 c #4c76d4",
"#3 c #141644",
"#4 c #1c1e5c",
"#5 c #345ec4",
"#6 c #c4ceec",
"#7 c #4c5aac",
"#8 c #d4deff",
"a` c #242264",
"a. c #bcbac4",
"a# c #a4aab7",
"aa c #bcc2d4",
"ab c #343694",
"ac c #acc6ec",
"ad c #d4e6ff",
"ae c #749adc",
"af c #cccecd",
"ag c #2c46a4",
"ah c #4476d4",
"ai c #24266f",
"aj c #d4dadc",
"ak c #7492cc",
"al c #7476a0",
"am c #f4f6ff",
"an c #84a6e4",
"ao c #4456b4",
"ap c #3c6ecc",
"aq c #94b2e4",
"ar c #2c3e9c",
"as c #ccdaf4",
"at c #bccaeb",
"au c #e4e6e4",
"av c #0c0e24",
"aw c #b4babc",
"ax c #8caae3",
"ay c #acbee4",
"az c #8492cc",
"aA c #9ca2d4",
"aB c #9cb2dc",
"aC c #b4c6eb",
"aD c #9cb2e6",
"aE c #3c66c2",
"aF c #242e84",
"aG c #546ec4",
"aH c #7c92d4",
"aI c #446ed2",
"aJ c #343e9c",
"aK c #8ca2de",
"aL c #eceeec",
"aM c #94aae1",
"aN c #7c9ad4",
"aO c #a4bae4",
"aP c #344eb4",
"aQ c #3c4eac",
"aR c #6c7eb4",
"aS c #c4d6f4",
"aT c #14163c",
"aU c #5466b8",
"aV c #646eba",
"aW c #747ebc",
"aX c #4c56ac",
"aY c #1c1e54",
"aZ c #345eb4",
"a0 c #444ea4",
"a1 c #94aad4",
"a2 c #3456bc",
"a3 c #6476c4",
"a4 c #7c86c4",
"a5 c #6c92dc",
"a6 c #94a2d4",
"a7 c #647ecc",
"a8 c #547ed4",
/* pixels */
"````````````````````````````````````###b`g`g`b`b`k`k`k`k.i#.````````````````````````````````````",
"``````````````````````````````````#.af#A.kafaL.X.X.Xam.D#n#i`f.7````````````````````````````````",
"`````````````````````````````````a#A`FaLau.k#Fau.XaL.L`b`g.k.u.i````````````````````````````````",
"``````````````````````````````#cau.X.X.Xam.u`B`V.k`b`b`V#A.uaL`F#b``````````````````````````````",
"``````````````````````````.N#baL.X.X.Xamam`F.u#A`V`d.e.D.uaLaLaLaL##````````````````````````````",
"````````````````````````.N#a`F.X.X.X.Xamamam`FaL`S#AauaLaLaLaLaL`Fau`a``````````````````````````",
"``````````````````````.g`3am.X.X.X.X.Xamamamam`FaLaLaLaLaLaL`S`B`F`F.D#.````````````````````````",
"````````````````````#E`dam.X.X.X.X.X.Xamamamam`F`FaL.uaLaLaL#i#i`F`Fam`B`i``````````````````````",
"````````````.V.V`Z.6`V.X.X.X.X.X.X.X.Xamamamam`FaL`g`g`S`S`d#A`Famamam`F.e#E````````````````````",
"``````aYab#s#d.4.U`j.X.X.X.X.X.X.X.X.XamamamamaL#F`d.u#A`g`j`Famamamau`g.e`V`P``````````````````",
"`````U`7`1.1at#6at.e.X.X.X.X.X.X.X.X.Xamamamau`g#n#A.D#h`B`FaLamam.D`3.e.u.X`d.g````````````````",
"````.j#g.G`e#`#`#`aaa..X.X.X.X.X.X.X.X.XaL#n`g#iau.e`3af.u`d#nam`S`g`B.X.X.X.X`b.7``````````````",
"``.N.r`A#8.R.R#`#``e.I`w.X.X.X.X.X.X.X.X.D`3#n`F#i.Dau.e`j`gam`S`g.kam.X.X.X.X.X#a.7````````````",
"```ZaV#6#`#`#`ad`e`e.d.Qaf.X.X.X.X.X.X`Saf.Daf#naf#Aam#n`BaL#n.k.D.u#n.X.X.X.X.X`F#b````````````",
"``#L#eas#`#`ad`e`e#8.daS.8`B.X.X.X.X`B`3`B.u`V`3aL`S#nauaL`g#i.D`B`g.k.X.X.X.X.X.X`F.P``````````",
".N.r#J#8adad`e`e.d.dasas.T.2#A.X`S.e.L`j.u#i#i.u.D`b#n.u`g.D`S.u`g`3am.X.X.X.X.X.X.X.u`a````````",
"`U`7`0.d`e`e#8.d.das.AaS.TaC#f`S`V#n#A`g`3#i`S#n`3`Bau.e.L.D#n`g#n.u.X.X.X.X.XaL#T.x#z`6#jav````",
"``.C`Aas`e#8.dasasaSaS.T`p`8`##faj.k.D`d#nau`g.Lafau.L`gaLam#i`Bam`S.x#z`2#W#Ba4#W#D#J#J#D`r````",
"``.C#Jas.d.das.AaSaS.T`p`8.0`X.y#f#A#i.u`F`V`g#Aauawa#.K#H`E#B#BaWazaA`A`Q`OasasasaSatat#u#4````",
"```z`uaSasasaSaS.T`p`8`8`X`XaC`#`5.2`B`S`V#n.D.kal.M#N`u#J`Q`Oas#8#8asasas`OaS.T#6aC.`aya0`U````",
"```z#D.TasaSaS.T`p`8`8`X.3aC`#`#.l#wa##n#i.u#n.p#W#8`e.Z#8#8asasas`OaSaS.T.T`8atayay`##S.m``````",
"``#L#N`8aSaS`p`8`8`X`X.3ac`##V.l#0`l`Ma#`Baf#kaW#8as`O`O`O`OaS.T.T.T`8`8`8at.`.y.yaOaO#7.V``````",
"``#Lazat.T`p`8`8`X.3aC`#`#.l#0#0`l`KaKaR`xal#g.T.T.TaS.T`8.T`8`8`8at`XaCaCayaBaB`l`l.F`z````````",
"``.m#uaC`8`8.0`X.3ac`##VaD.s#u#m`n.a.J.o`N`0`8.T`8#6`8aCatat`XaCaCaC`#`#`la1aM`K`K`K.naY````````",
"``#4`C`#`8`X`XaC`#`#.vaV#y`1a6`0`8.T#6`8ataCatatataCayaCaCaC`#`##V.laO`K#l`Yax`Y`Y.F.r.N````````",
"```Z.J#V`X.3aC`#`#aK#y`0.T.T.T`8`8at`XaCaC`#ay.`ayay#V`##V.l#0aOaO`l`q.waN`G`G.#`haG`r``````````",
"``.B#yaOaCac`##V.laV`0`8`8at`XaCaC`#`##V.l#0.yaDaOaO#0aOaO`l`laDaq#lakak`ha5`.`o#M#R`U``````````",
"``#3.4#K`#`#.l#0.faVaCaCaC`#`##V.l#0#0`l`laD`K`KaMaD`laDaqaq`Kax.w#t.O.S`c#M#M#M#r#L````````````",
"``#3`n.f#V.l#0#0.o.o`##V#V#0#0`l`laDaq`K`Kaxax`Y`G`G`K`Kaxax`G.O.S`J#X#5.b#M#M#MagaT````````````",
"``#3#daM#0#0`l`laVaM#0aO`laDaD`K`Kaxax`Yan`G`G.##ZaeaNan`G#CaE`caE`J`J#5.b#M#M#5`z``````````````",
"``#3aX.v`l`laDaMaU`laD`K`KaMax`Yan`G`G.#.##Zae`h`ha5#C.O#IaZ`c`J`J`J`J#5.b#M#M.z#4``````````````",
"``.V#oaKaDaD.YaHa3`Kaxax`Y`G`G.#.##Zae`h`ha5a5#C`H#1`o`J`c`c`J`Japap`J#5.b#M#M#O.N``````````````",
"``.Na0.F`K.Y`Ka3`Dan`G`G.##Z#Z`h`h#Pa5#C#C.t.t#1#2apapap`J`J`Japapap`J#5.b#Ma2ai````````````````",
"``.N`T#SaM`K`Y.W#Z.##Zae`h`ha5a5#C.t.t`R#1#1`4aIapapapapapapapapapap`J#5.b`c#R#U````````````````",
"``.N`TaH`Yax#YaU`h`ha5a5#C`H.t.t#1#1#1`.a8`oapapapapapapapapapapapap`J#5.b#r.m``````````````````",
"``.NaJ.oaK`Y#G`W#C#C.t.t`R#1#1#1`.a8`4`oapapapapapapapapapapapapapap`J#5.bag#3``````````````````",
"``.N.r.E.F`G.W#1.t#1#1#1`.a8a8#I#2`oapapapapapapapapapapapapapapap`J`J#5`s#L.N``````````````````",
"``.Nab#p.F#Z.c#1#1`.a8a8`4#2`oaIapapapapapapapapapapapapapap`J`J`J`J#M#r`m#3````````````````````",
"``.N`z#p#Za7..`4#2ah`o`o#Q#Qapapapapapapapapapapapap`J`J`J`J`JaE#r.zaraF`Z``````````````````````",
"````aia7`h.W.qaIaI#Q#Q#Qapapapapapapapapapap`J`J`J`J#X#5a2.z`Lai#4`v.N``````````````````````````",
"````ai`t#taoaI#Q#Q#Q#Qapapapapapapap`J`J`J`J#X#5#x#v#O.m#q#U.N``````````````````````````````````",
"````ai.a#G.5#Q#Q#Q#Qapapapap`J`J`J`J#X#5#x#v`Lai#qav.N``````````````````````````````````````````",
"````ai.n`yaEapapapapap`J`J`JaE#raP#v`z`r#3av````````````````````````````````````````````````````",
"````ai`y`I`Jap`J`J`J.h#r.zar`za`#3`U````````````````````````````````````````````````````````````",
"`````r.HaQ`J.ha2.zaJ`z.jaT`U````````````````````````````````````````````````````````````````````",
"````#q#OaJ`L.m#4.V.N````````````````````````````````````````````````````````````````````````````",
"``````#3.V.N````````````````````````````````````````````````````````````````````````````````````",
"````````````````````````````````````````````````````````````````````````````````````````````````"
};
