/* XPM */
static char *options_xpm[] = {
/* width height num_colors chars_per_pixel */
"    48    48      256            2",
/* colors */
"`` c #000000",
"`. c #447ebc",
"`# c #7caed4",
"`a c #7c7a7c",
"`b c #7c96b4",
"`c c #bcb69c",
"`d c #5492cc",
"`e c #2c3e54",
"`f c #9c9a9c",
"`g c #9cb2c4",
"`h c #7c9abc",
"`i c #6ca2dc",
"`j c #0c223c",
"`k c #64768c",
"`l c #cccecc",
"`m c #6c92b4",
"`n c #3c5a64",
"`o c #8cbedc",
"`p c #848a8c",
"`q c #8ca2b4",
"`r c #bcc2c4",
"`s c #5c86ac",
"`t c #949694",
"`u c #001224",
"`v c #7ca6d4",
"`w c #2c2a2c",
"`x c #8c8a8c",
"`y c #5c9ad4",
"`z c #9ca6ac",
"`A c #5c5a5c",
"`B c #94b2cc",
"`C c #9cc6dc",
"`D c #b4b2b4",
"`E c #acaeac",
"`F c #6486ac",
"`G c #b4babc",
"`H c #7cb6ec",
"`I c #749eb4",
"`J c #4c86c4",
"`K c #949ea4",
"`L c #444244",
"`M c #0c3264",
"`N c #d4dadc",
"`O c #8cc6ec",
"`P c #6c6a6c",
"`Q c #7486a4",
"`R c #6492c4",
"`S c #74aadc",
"`T c #7c8ea4",
"`U c #8c96a4",
"`V c #141214",
"`W c #8ca6c4",
"`X c #acaaac",
"`Y c #000a0c",
"`Z c #547694",
"`0 c #7c8284",
"`1 c #8ca2bc",
"`2 c #6c96c4",
"`3 c #cccacc",
"`4 c #8c928c",
"`5 c #9caabc",
"`6 c #648ea4",
"`7 c #c4bebc",
"`8 c #5c8ac4",
".` c #7caee4",
".. c #849eb4",
".# c #5c92cc",
".a c #9ca29c",
".b c #9cb6bc",
".c c #7ca2cc",
".d c #74a2d4",
".e c #94c2dc",
".f c #c4c2c4",
".g c #343634",
".h c #649ad4",
".i c #acb6ac",
".j c #4c4e4c",
".k c #8496ac",
".l c #242224",
".m c #d4d6d4",
".n c #2c66a4",
".o c #a4a6a4",
".p c #646264",
".q c #bcbabc",
".r c #548ec4",
".s c #8caad4",
".t c #4c7eb4",
".u c #a4aeb4",
".v c #849abc",
".w c #8cbeec",
".x c #848e9c",
".y c #949a94",
".z c #001a34",
".A c #343234",
".B c #bcb6bc",
".C c #acb2bc",
".D c #84b6e4",
".E c #24364c",
".F c #e4e2e4",
".G c #6c7274",
".H c #848ea4",
".I c #949aa4",
".J c #1c1a1c",
".K c #94a6bc",
".L c #0c0a0c",
".M c #848284",
".N c #7492bc",
".O c #949294",
".P c #648eb4",
".Q c #84b2e4",
".R c #c4c6cc",
".S c #649ed4",
".T c #a4aaa4",
".U c #000600",
".V c #4482c4",
".W c #7c7e7c",
".X c #5496d4",
".Y c #3c3e3c",
".Z c #9c9e9c",
".0 c #6ca6dc",
".1 c #142a44",
".2 c #747674",
".3 c #d4d2d4",
".4 c #7492ac",
".5 c #848e94",
".6 c #94a2b4",
".7 c #5c8ebc",
".8 c #84aad4",
"#` c #2c2e2c",
"#. c #446694",
"## c #5482bc",
"#a c #3472b4",
"#b c #4c626c",
"#c c #8cbae4",
"#d c #6c9ecc",
"#e c #4c4a4c",
"#f c #143a64",
"#g c #545654",
"#h c #748eb4",
"#i c #6c8aac",
"#j c #5c82ac",
"#k c #548acc",
"#l c #14365c",
"#m c #3c3a3c",
"#n c #545254",
"#o c #749ac4",
"#p c #14263c",
"#q c #648abc",
"#r c #dcdadc",
"#s c #7c92b4",
"#t c #000e1c",
"#u c #74a6e4",
"#v c #94c6f4",
"#w c #a4aab4",
"#x c #a4a2a4",
"#y c #a4b6c4",
"#z c #84a2c4",
"#A c #6c8ebc",
"#B c #8c929c",
"#C c #acb6bc",
"#D c #548ed4",
"#E c #0c1a34",
"#F c #747274",
"#G c #7cb2dc",
"#H c #2c424c",
"#I c #7c9ec4",
"#J c #8cc2e4",
"#K c #00162c",
"#L c #7caadc",
"#M c #8c8e8c",
"#N c #b4b6b4",
"#O c #acb2b4",
"#P c #6496cc",
"#Q c #8c9aac",
"#R c #7cb2e4",
"#S c #5c96cc",
"#T c #74a6dc",
"#U c #c4c6bc",
"#V c #849aac",
"#W c #646664",
"#X c #bcbebc",
"#Y c #a4b2bc",
"#Z c #84badc",
"#0 c #94aabc",
"#1 c #848684",
"#2 c #7496bc",
"#3 c #7c9ab4",
"#4 c #5c5e5c",
"#5 c #94b6cc",
"#6 c #444644",
"#7 c #6c6e6c",
"#8 c #141614",
"a` c #5c8ec4",
"a. c #242624",
"a# c #849ebc",
"aa c #8cc2ec",
"ab c #8492a4",
"ac c #1c1e1c",
"ad c #0c0e0c",
"ae c #94a6b4",
"af c #dcdedc",
"ag c #447ec4",
"ah c #5492d4",
"ai c #ccced4",
"aj c #848a94",
"ak c #bcc2cc",
"al c #5c86b4",
"am c #94969c",
"an c #5c9adc",
"ao c #acaeb4",
"ap c #b4bac4",
"aq c #949eac",
"ar c #8cc6f4",
"as c #74aae4",
"at c #8c96ac",
"au c #8c9294",
"av c #c4bec4",
"aw c #9ca2a4",
"ax c #94c2e4",
"ay c #649adc",
"az c #d4d6dc",
"aA c #a4a6ac",
"aB c #548ecc",
"aC c #a4aebc",
"aD c #949a9c",
"aE c #648ebc",
"aF c #649edc",
"aG c #a4aaac",
"aH c #00060c",
"aI c #7c7e84",
"aJ c #9c9ea4",
"aK c #6ca6e4",
"aL c #74767c",
"aM c #7492b4",
"aN c #2c2e34",
"aO c #8c8e94",
"aP c #b4b6bc",
"aQ c #7cb2ec",
"aR c #5c96d4",
"aS c #c4c6c4",
"aT c #849ab4",
"aU c #64666c",
"aV c #bcbec4",
"aW c #84bae4",
"aX c #94aac4",
"aY c #84868c",
"aZ c #7496c4",
"a0 c #000000",
"a1 c #000000",
"a2 c #000000",
"a3 c #000000",
"a4 c #000000",
"a5 c #000000",
"a6 c #000000",
"a7 c #000000",
"a8 c #000000",
/* pixels */
"``````````````````````````````````````.1`j``````````````````````````````````````````````````````",
"````````````````````````````````````#K`.#aaH````````````````````````````````````````````````````",
"````````````````````````````````````#f.rag#t````````````````````````````````````````````````````",
"````````````````````````````````````.n#S`J.z````````````````````````````````````````````````````",
"``````````````.U`P`x`x`x`x`x#M#M`x`kah#T.h`Z`x`x#1#1#1#1#1.M.M.M.M.W.W.W.W`a`a#W.U``````````````",
"``````````````ad`f#N#N#N#N#N#N#N#N#q`i.``i.P`D`D`D`D`E`E`E`X`X.o.o#x#x#x.Z.Z`f`xad``````````````",
"``````````````#8.o.q.q.q.q.q.q.q#O#kas#G.0.7#N#N#N`D`D`D`E`E`E`X`X.o.o#x#x.Z.Z`t#8``````````````",
"```````````````w`E#X#X#X#X#X#X#X`1aFaR#j.0a`aP.q.q#N#N#N#Oat#s`T`X`X`X.o.o#x#x`fa.``````````````",
"``````````````#m#N#X.f.f.f.f.f.f`R#T.7.4`i.#aP#X.q.q.q#N`F#P.QaB#i`E`X`X.o.o#x.Z#m``````````````",
"``````````````.j.q.f.f.faSaSaSapaR`i`b.6ayaR#C#X#X#X.q`b#D.D.e`S.V`X`E`E`X`X.o#x.j``````````````",
"``````````````#W.faSaSaSaSaSaS`WaFaRaoaC`yaR#Y.f.f#X.C`J.0#A.xaRan#Q`D`E`E`X`X.o#4``````````````",
"```````````````aaS`3`3aCa#.v#Y`2#u`R.f`GaRaF`5`raT#z.c.`.h.I`Ea`.0aE`D`D`X#i`h`Q.G``````````````",
"```````u#.aM#h#z.s.s.8`v#c.D.d#TaF..`3`r.#`i#z###L.war.D#V#N.q#s`iaB.u`D.t#TaW#Lal`e.E#EaH``````",
"``````#l.S`#`#.waa`Oaa#v`C#Z.`.``d#C.3.R.#aKaEaRas`B`q`K`D.f#X`zaR`i.N`b`y#R#5#J.D.d#da``M``````",
"```````Y#H`n#bae.b.b`g.6`X`baFas`R`3.3`l`Ras.Qas`8`X#N#XaSaS.f#NaMaQ.D.QaQ`m`t.5#3`6`I`s#p``````",
"````````````ac`X.q#X#XaS.3aV#Taa#0.3.m.3#o.0.``i#2`3`3`3`3aSaS.f`X`b`oax`baw`D`X`t.J````````````",
"````````````#`aS.3.m.m.m.m.3ao#waS.m.m.m#I`i.`an#0`l`l`3`3`3aSaS.f`E.Z`f`X#N.q#N`D`w````````````",
"`````````````L`3.m.m.m#r#r#r.3`l.m#r#r.m.KaF.`#DaV.3`l`l`3`3`3aSaS.f#X.q#X#X.q.q#N`L````````````",
"`````````````A`l.m#r#r#r#r#r#raf#r#r#r#r#yanas.r`3.3.3`l`l`l`3`3aSaSaS.f.f#X#X.q.q#g````````````",
"````````````#7.3#r#r#r#rafafafafafaf#r#rak.XaKaZ.3.3.3.3`l`l`3`3`3aSaS.f.f.f#X#X#X`P````````````",
"````````````#1.m#r#r#rafafafafafafafaf#r`laF`HaX.m.m.3.3.3`l`l`3`3`3aSaS.f.f.f#X#X.M````````````",
"````````````.o.m.m#r#r#r#rafafafaf#r#r#r.3#0aXaV.m.3.3.3`l`l`l`3`3aSaSaS.f.f#X#X#X.Z````````````",
"````````.l`PaS`3`3`3`3`l`l`l`l`l`l`l`l`l`3.q#NaS`3`3`3`3`3`3`3`3`3aSaSaSaSaSaSaSaS.f#7.l````````",
"``````.U#x`3.f#U.f`3.f`3avav.f`7aS#N#X.q.q#XaS#X`laS#X.q.q#X#NaS`7.favav`3aSaSaSaSaS`3.o.U``````",
"``````.J`X.q`E`c`X.f`X.q.i.i.i.i.B`D`D`D`D`D.q#XaS.q`D`D`D`D`D.B.i.i.i.i.q.q.q.q.q.q.q`Eac``````",
"``````.2#N#NaD.a#MaJ.Oam.yauaw#MaJ.yau.yaOawawaoaoaJaJ`4am`tam.a#Maw.OaD`tau.Z#Maw`f#N`D#F``````",
"````.U`3`X`DaJ#N`t#O.Z#x`XaD`G.O#O.aaw.T`t#N.Zaqaq.Z#N`taG#xaJ#N.O`G.yaG.o`f#O`taP.Z`D.o`E.U````",
"`````LaS#x`E.Z#N.O`D`f#x`X`t#N.O`D.Z#x`X`t#N`faqaq`f#N`t`X#x.Z`D.O.q`t`X#x`f`D.O#N.Z`E`X.Z#e````",
"`````a`E#x`X`f`D.O`X`f.Z`X`t#N#M`E.Z.Z.o.O`DaDaqaqaD`D.O.o.Z.Z`E.O#N`t`X.Z`f`X.O`D`f`X`X`x.W````",
"`````x.o.Z.Z`f`E.O.o`f`f.o.O`D#M`X`f.Z#x.O`EaDaqaqaD`E.O#x.Z`f`X#M`D.O.o`f`f.o.O`E`t`f`X.W.O````",
"````#M.o`t`t`t`X.O#x`t`f#x.O`E#M.o`f`f#x.O`Xam#Q#Qam`X.O#x`f`f.o#M`E.O#x`f`t#x.O`X`t.O#x.W#M````",
"````.W`D`t`X`t.o.O.Z`t`t.Z#M`X`x#x`t`t.Z#M.oau#Q#Q#B.o#M.Z`t`t#x`x`X#M.Z`t`t.Z.O.o`t`Xaw`p.W````",
"````#n.m`x`f.O#x#M`f`t.O.Z`x.o`x.Z.O`t`f`x#xau.k`Uau#x`x`f`t.O.Z`x.o`x.Z.O`t`f#M#x.O`f#M.o#g````",
"````ac.F.O`t#M.Z`x`t.O#M`f`x#x#1`f.O.O`t`x.ZaOababaO.Z`x`t.O.O`f#1#x`x`f#M.O`t`x.Z#M`t`0`3#8````",
"``````.o#x.O`x`f`x.O.O#M`t#1.Z#1`t#M#M`t#1`f`x.H.x`x`f#1`t#M#M`t#1.Z#1`t#M.O.O`x`f`x.O`t.Z``````",
"```````A.O#M`x#1#1.M.M#1.M.M#1.M#1#1.M#1.M#1`paY`p`p#1.M#1.M#1#1.M#1.M.M#1.M.M#1#1`x#M#M#6``````",
"``````ac#F.M#1#M#M.O.O#M.O#M.O#M.O#M.O.O#M.O#1.W.W#1.O#M.O.O#M.O#M.O#M.O#M.O.O#M.O#1.M.p#8``````",
"````````.j#F#x`a`a#M#M#M#M#M#M#M#M#M#M#M#M#M#M`x`x#M#M#M#M#M#M#M#M#M#M#M#M#M#M#1#F`t`P.g````````",
"`````````V`P#1.f.O`a`f#x#x#x#x#x#x#x#x#x#x#x#x#x#x#x#x#x#x#x#x#x#x#x#x#x#xaJ`p.W#N.M#e.L````````",
"``````````.l#F.Z.maS#1#M`E`E#N`E`D`D`D`D`E#Nao#O#Oao#N`E`D`D`D`D`E#N`E`D`f.M`E`3`x`P.J``````````",
"````````````.A.2#x.q#r#N`x`x`X`E#N`D`D#N`E#N`D.C.C`D#Nao#N`D`D#N`E`E`t`p#x.3`X#1`aa.````````````",
"``````````````.l.W`x.W`Daf.f`f.W#M`f`X`D`E#N`D.C.C`D#N`E#N`E#x`t.Wau`D#r`D`a.M#1a.``````````````",
"````````````````ad.p#F.2.M#x`3af`l`X.O`p.W`p#1ajajaY`x.W#1#Maw.faz`3`f`P`P.M#F`V````````````````",
"``````````````````.U#`.p.M#M.O`f`X#X.3#r#raf`N`N`N`Naf#razai`G`f`aaU#4`P#7#m.U``````````````````",
"``````````````````````.U.A#7`t.Z.o`X`E`D`E`X`X`X.o.Z`t`xaIaL#F`P.p.p`A.g.L``````````````````````",
"````````````````````````````.J#n.WaJ`D`DaA.Zam.O`x#1.M`a.2#F.p#n.g#8````````````````````````````",
"```````````````````````````````````V`w#6#g`P#W.p#4`A#g.YaNac.L``````````````````````````````````",
"````````````````````````````````````````````````````````````````````````````````````````````````"
};
