/* XPM */
static char *run_xpm[] = {
/* width height num_colors chars_per_pixel */
"    48    48      256            2",
/* colors */
"`` c #000000",
"`. c #247a24",
"`# c #7c7a87",
"`a c #0c4600",
"`b c #1cae0c",
"`c c #444654",
"`d c #a4beac",
"`e c #1c3e7c",
"`f c #4c7abc",
"`g c #acbabc",
"`h c #4cae44",
"`i c #3c5a94",
"`j c #8c9a94",
"`k c #64626c",
"`l c #ace2a5",
"`m c #648edb",
"`n c #9c9aac",
"`o c #34ae24",
"`p c #14960c",
"`q c #2c5ab0",
"`r c #6482ac",
"`s c #4cc242",
"`t c #4462a4",
"`u c #344e6c",
"`v c #b4c6ec",
"`w c #003200",
"`x c #2c6aac",
"`y c #a4beb4",
"`z c #545663",
"`A c #7c9adc",
"`B c #34ba25",
"`C c #345e34",
"`D c #449244",
"`E c #64ca59",
"`F c #5482d4",
"`G c #2c924c",
"`H c #546ea7",
"`I c #bcbacc",
"`J c #c4d2f1",
"`K c #1c9e10",
"`L c #a4aeac",
"`M c #244e9a",
"`N c #7c8ec4",
"`O c #24b617",
"`P c #446ec8",
"`Q c #001e00",
"`R c #2c826c",
"`S c #7cd274",
"`T c #3c66ba",
"`U c #8caae4",
"`V c #5c7abc",
"`W c #94da8c",
"`X c #34464c",
"`Y c #444e4c",
"`Z c #acbeec",
"`0 c #44b634",
"`1 c #6482c4",
"`2 c #2ca624",
"`3 c #9caad4",
"`4 c #4476d1",
"`5 c #34b626",
"`6 c #3c62b4",
"`7 c #5cc64c",
"`8 c #142244",
".` c #445e94",
".. c #44be34",
".# c #74ce68",
".a c #1ca614",
".b c #7c86ac",
".c c #244284",
".d c #4c7ad2",
".e c #bceaba",
".f c #7496dc",
".g c #3462b6",
".h c #9cb6e4",
".i c #84a2e0",
".j c #1c6e34",
".k c #c4eabc",
".l c #34569c",
".m c #3c6ecb",
".n c #345634",
".o c #1c3264",
".p c #000a00",
".q c #1c8a1c",
".r c #84828c",
".s c #2cb224",
".t c #b4c2c4",
".u c #246e7c",
".v c #84aa94",
".w c #6c6e74",
".x c #3cae34",
".y c #344e7e",
".z c #c4c6d4",
".A c #5c5e68",
".B c #ccdaf4",
".C c #249e18",
".D c #b4b2c4",
".E c #2cb61d",
".F c #8cd984",
".G c #545258",
".H c #648ad6",
".I c #547ad0",
".J c #24ae20",
".K c #acb6d4",
".L c #64b264",
".M c #34629c",
".N c #b4e6b0",
".O c #7492dc",
".P c #249414",
".Q c #345ab2",
".R c #54c64a",
".S c #3cbe2e",
".T c #6cce61",
".U c #5c82cf",
".V c #bcc2d4",
".W c #a4aec4",
".X c #2c56ac",
".Y c #8c8a94",
".Z c #4c72c4",
".0 c #0c1224",
".1 c #3c8e6c",
".2 c #3c6ac9",
".3 c #244a94",
".4 c #a4beec",
".5 c #8cb294",
".6 c #7c7e88",
".7 c #345aa4",
".8 c #6c90dc",
"#` c #a4a2ac",
"#. c #14423c",
"## c #74727c",
"#a c #246a3c",
"#b c #248c54",
"#c c #142a54",
"#d c #0c1a34",
"#e c #7486b4",
"#f c #94929c",
"#g c #3c465c",
"#h c #74b27c",
"#i c #2c7634",
"#j c #446ac4",
"#k c #2c426c",
"#l c #3467cc",
"#m c #a4de9c",
"#n c #647294",
"#o c #5476bc",
"#p c #c4ceec",
"#q c #9cb2e4",
"#r c #345a34",
"#s c #7cb284",
"#t c #5c6684",
"#u c #1c9a20",
"#v c #2c4a64",
"#w c #4c4e64",
"#x c #8496bc",
"#y c #94b2e4",
"#z c #bcceec",
"#A c #1c3a74",
"#B c #248e1c",
"#C c #000a14",
"#D c #5c5a64",
"#E c #84d67c",
"#F c #4c5a84",
"#G c #3c523f",
"#H c #2c662c",
"#I c #24821c",
"#J c #24a624",
"#K c #6c8acc",
"#L c #a4b2d4",
"#M c #24ac14",
"#N c #6c7ea4",
"#O c #849ed4",
"#P c #ccd6f4",
"#Q c #2c509c",
"#R c #94aadc",
"#S c #9cde94",
"#T c #4c5054",
"#U c #a4b6e4",
"#V c #8ca6e4",
"#W c #3c4e84",
"#X c #6cb06c",
"#Y c #acaabc",
"#Z c #34b234",
"#0 c #4466b4",
"#1 c #bccaec",
"#2 c #545a6c",
"#3 c #4472d4",
"#4 c #5c7ecc",
"#5 c #b4c2ec",
"#6 c #6486d4",
"#7 c #24861c",
"#8 c #d4def4",
"a` c #b4b8d4",
"a. c #248a64",
"a# c #b4bac4",
"aa c #346ab4",
"ab c #4c76cf",
"ac c #246e3c",
"ad c #3c5694",
"ae c #2c4a8c",
"af c #94b29c",
"ag c #3c5a9c",
"ah c #84b28c",
"ai c #3c4e6c",
"aj c #c4c2d4",
"ak c #00060c",
"al c #247e1c",
"am c #444a58",
"an c #3c5e8c",
"ao c #ace6ac",
"ap c #34b229",
"aq c #4cc644",
"ar c #34be2c",
"as c #34622c",
"at c #64ce5c",
"au c #bcbece",
"av c #c4d6f4",
"aw c #1ca214",
"ax c #4472cc",
"ay c #7cd674",
"az c #3c6ab4",
"aA c #6486cc",
"aB c #5cca54",
"aC c #14264c",
"aD c #44c23b",
"aE c #74d26c",
"aF c #244688",
"aG c #84a6e4",
"aH c #1c366c",
"aI c #848694",
"aJ c #345284",
"aK c #24a214",
"aL c #2cba1f",
"aM c #547ed3",
"aN c #345eb4",
"aO c #5c86d3",
"aP c #0c162c",
"aQ c #a4a6b4",
"aR c #747684",
"aS c #142e5c",
"aT c #0c1e3c",
"aU c #9496a4",
"aV c #000e1c",
"aW c #94aee4",
"aX c #a4bae7",
"aY c #acaebd",
"aZ c #9c9eac",
"a0 c #b4caec",
"a1 c #a4c2b4",
"a2 c #7c9edc",
"a3 c #5c7ebc",
"a4 c #94de8c",
"a5 c #acc2ec",
"a6 c #749adc",
"a7 c #000e00",
"a8 c #3cb234",
/* pixels */
"``````````````````````````````````.0`8`e`e`e`e`e`e`e`eaCaPak````````````````````````````````````",
"````````````````````````````aV.o.X`P.H.i.ha5#1#z`v.4aW.OaM.g`eaTak``````````````````````````````",
"````````````````````````aP.3.m.8aX`J#8#8#8#8#8#8#8#8#8#8.B#1#V.I.X#c````````````````````````````",
"````````````````````aVaFax.i#p.B.B.B.B.B.B.B.B.B.B.B.B.B.B.B.B.B.4aO.XaT````````````````````````",
"``````````````````aCaN.8#1#P.B.B.B.B#P#P#P#P#P#P#P#P#P#P#P#P#P#P#Pav#qabaHak````````````````````",
"``````````````akaH#3#qavavavavavavav`v`U.8.H.H.H.H`ma2.h#zavavavavavav#z.8`M#C``````````````````",
"````````````ak`MaM`v`J`J`J`J`J`va2`f.MaJai#w`z`z`z#2#Fag`T#6#q#z`J`J`J`J`JaGaN.0````````````````",
"``````````ak`MaO`v`J`J`J`J`v.faz#b#Z`0`2`D`j#YaYaYaYaQ#f`##t`taM#y#z#z#z#z#zaW.Q.0``````````````",
"``````````aHaM`v#z#z#z#z#y.Z.y#iaB.e.kaoaE`5.L`g.z.z.zajau.DaU#n#0.8`v#z#z#z#zaG#Qak````````````",
"````````aCax`Z#1#1#1a0a2.7#g`k`o`l.e.e.e.e.N.#`5#X`gaj.z.z.z.z`I`n`H.I.4a0a0a0a0.faF````````````",
"``````aVaN`U`v`v`v`v.f.l`c`#`L...N.N.N.N.N.N.N`l`E`5#Xa#aj.z.z.zajaY#NabaX`v`v`va5aMaC``````````",
"``````aF.Ha5#5#5a5`A.l`caI`Ia1`s.N.N.N.N.N.N.N.N.N#SaBap#hau.z.z.z.z`I.babaXa5a5a5#q.Q#C````````",
"````aP.m.ha5a5a5#V.7`caIau.z`d.R`l`l`l`l`l`l`l`l`l`l`la4.Rap#sau.z.z.zau#eaM.4`Z`Z`Z.8aH````````",
"````.3.8.4.4.4.h`P#g`#`I.z.z`d`s#m#m#m#m#m#m#m#m#m#m#m#m#m.F`sa8ahau.z.z`Ia3`m#yaXaX#q`TaV``````",
"``aV.2#qaXaXaX`m.y`kaY.z.z.z`d`s#S#S#S#S#S#S#S#S#S#S#S#S#S#S#S`S...x.5au.z.W.2#labaO.faMaS``````",
"``.oaO.h.h.h`U`6am`naj.z.z.z`daD`W`W`W`W`W`W`W`W`W`W`W`W`W`W`W`W`WaE.S.xafau`N#l#l#l#l#l.X``````",
"``.Xa2#q#q#q`m.y.w`I.z.z.z.z`daD#E#E#E#E#E#E#E#E#E#E#E#E#E#E#E#E#E#E#E.T`B`h.v.2#l#l#l#l#l.0````",
".0.2`UaWaWaW`PamaU.z.z.z.z.z`d..`S`S`S`S`S`S`S`S`S`S`S`S`S`S`S`S`S`S`S`S`SaB.E`G`x#l#l#l#laS````",
"`8.d`U`U`Ua2.7.A.D.z.z.z.z.z`d.SaEaEaEaEaEaEaEaEaEaEaEaEaEaEaEaEaEaEaEaEaEaEaE.R.s#b`x#l#l.c````",
"`eaO#V#V#V`m#W`#au.z.z.z.z.z`d.S.T.T.T.T.T.T.T.T.T.T.T.T.T.T.T.T.T.T.T.T.T.T.T.T.T`s.Ja.aa.Xak``",
"`e.d.H.fa2aMai#faj.z.z.z.z.z`d.S.T.T.T.T.T.T.T.T.T.T.T.T.T.T.T.T.T.T.T.T.T.T.T.T.T.T`EaD#J.uak``",
"`e#l.2.2.2#l#waQ.z.z.z.z.z.z`d`B`E`E`E`E`E`E`E`E`E`E`E`E`E`E`E`E`E`E`E`E`E`E`E`E`E`E`E`EaB.E`a``",
"`e.2.m.m.m#l`zaY.z.z.z.z.z.z`d`B`E`E`E`E`E`E`E`E`E`E`E`E`E`E`E`E`E`E`E`E`EaB.R`saD...S.S.S.S`Ka7",
"`e.maxax`P#l`zaY.z.z.z.z.z.z`d`BaBaBaBaBaBaBaBaBaBaBaBaBaBaBaBaBaBaB.R`s.Sar`B`B`B`B`B`B`BaL`b`Q",
"`e`P`4`4#3#l`zaY.z.z.z.z.z.z`d`O.SaD`s.RaBaBaBaBaBaBaBaBaBaB`7.R`s.S.S.S.S.S.S.S.S.S.S.SaraL`p.p",
"`eaxab.dab.2#2aY.z.z.z.z.z.z`d`O.S......aD`saq.R.R.R.R.R`saDaD.....................S.S.S`B.a`w``",
"`eax.daM.I`P#FaQ.z.z.z.z.z.z`d`OaDaDaDaDaDaDaDaDaDaDaDaDaDaDaDaDaDaDaDaDaDaDaDaDaDaD.S.E#u#.````",
"aC.maM`F`Fabag#faj.z.z.z.z.z`d.E`s`s`s`s`s`s`s`s`s`s`s`s`s`s`s`s`s`s`s`s`s`s`s`s..aL`K#a#kaH````",
"aP.2`FaOaO`F.g`#au.z.z.z.z.z`daL.R.R.R.R.R.R.R.R.R.R.R.R.R.R.R.R.R.R.R.R.R.R`s`Bawac`u`i#0aH````",
"ak`q`F.H.H.H.m#t.D.z.z.z.z.z`daL`7aBaBaBaBaBaBaBaBaBaBaBaBaBaBaBaBaBaB`7.R.S#M.j#v.`#o.UaxaT````",
"```e.d.8.8.8aM`taU.z.z.z.z.z`d`BaB`E`E`E`E`E`E`E`E`E`E`E`E`E`E`E`E`E`7.S#M`.`Xae#o.H.8.H.gak````",
"``aT.2.8.f.f.8`P#n`I.z.z.z.z`d`Bat.T.T.T.T.T.T.T.T.T.T.T.T.T.T.T`EaD.Jal#G.A`taM.8.f.8`F.c``````",
"``ak.XaO.f`Aa6aO`T`naj.z.z.z`d`B.TaEaEaEaEaEaEaEaEaEaEaEaE.#.T`s.E#I#G#D.Y#xax.fa6a6.O`P#d``````",
"````#cax.fa2a2`A.d`HaY.z.z.z`daraE`S`S`S`S`S`S`S`S`S`S`S.#.R.E#7#G#D.Y.Da`ab.8a2a2a2.H.3````````",
"``````.X.H.iaG.i`Aax#N`I.z.z`d.S`S#E#E#E#E#E#E#E#Eay`SaB`5#B.n`z.raYaj.V.U#6.iaG.i`A.m#d````````",
"``````aT.2`A#V`U#Va6`P.bau.z`y.S#E.F.F.F.F.F.F#E#Eatar.P#r.G.6#Yaj.z.VaAaOaG`U`UaGaO`e``````````",
"````````aH.d#VaWaWaWa2ax#e`I.taL#E.F`W`W`W.F#E.T.S.P`C.G.6#Yaj.z.za`#4aO`UaWaW`U.f.Qak``````````",
"````````ak`M.HaW#q#q#yaG.d`V.WapaE.F`W`W.FaE...Cas#TaRaQau.z.zaj`3ab.8aW#q#q#y.i.2#d````````````",
"``````````#C`q.8#q.haX.haW`m`P.1.S`S.F.#aDaK#H`Y###`au.z.z.z#LaA.d.i.h.h#U.h`U`4aC``````````````",
"````````````.0`q.8.haX.4.4aXaWaO`R#u.C.q#H#T##aZau.z.V.K#O#4.d`A.haX.4.4aX`Uab#c````````````````",
"``````````````.0#Q.H#q`Za5a5`ZaX#R`ran.yad`H`1#K#KaA.IaM`m#VaX`Za5a5`ZaX.i`PaC``````````````````",
"````````````````akaF.d`U`Za5`v`v`va5aX.haW`U#V#V`U`U#q.4a5a5`v`v`va5aX.8aN#d````````````````````",
"````````````````````aC.Q`m#qa5`va0a0a0a0a0`v`v`v`va0a0a0a0a0`v`v`Z.iax`eak``````````````````````",
"``````````````````````#CaH`T`m#ya5`v#1#1#z#z#z#z#z#z#1#1a0`vaX.i.d.3#d``````````````````````````",
"``````````````````````````aVaS`q.d.OaW`Z`v`va0a0`v`v#5.h.i.H.2.c#d``````````````````````````````",
"````````````````````````````````.0aS.c.X#j.d.UaOaM.Z.g.3#AaTak``````````````````````````````````",
"``````````````````````````````````````ak#C#CaVaV#C#Cak``````````````````````````````````````````",
"````````````````````````````````````````````````````````````````````````````````````````````````"
};
