/* XPM */
static char *cd_hf_selected_xpm[] = {
/* width height num_colors chars_per_pixel */
"    32    16      256            2",
/* colors */
"`` c #000000",
"`. c #ffb2b2",
"`# c #c7c7c7",
"`a c #008cb2",
"`b c #e7e7e7",
"`c c #b2deff",
"`d c #d7d7d7",
"`e c #b7b7b7",
"`f c #b2cdff",
"`g c #b2bdff",
"`h c #7fc8ff",
"`i c #7fadff",
"`j c #a7a7a7",
"`k c #979797",
"`l c #878787",
"`m c #808080",
"`n c #777777",
"`o c #c0c0c0",
"`p c #0066b2",
"`q c #4c8cfe",
"`r c #7f91ff",
"`s c #4cb2fe",
"`t c #7fe3ff",
"`u c #000000",
"`v c #000000",
"`w c #000000",
"`x c #000000",
"`y c #000000",
"`z c #000000",
"`A c #000000",
"`B c #000000",
"`C c #000000",
"`D c #000000",
"`E c #000000",
"`F c #000000",
"`G c #000000",
"`H c #000000",
"`I c #000000",
"`J c #000000",
"`K c #000000",
"`L c #000000",
"`M c #000000",
"`N c #000000",
"`O c #000000",
"`P c #000000",
"`Q c #000000",
"`R c #000000",
"`S c #000000",
"`T c #000000",
"`U c #000000",
"`V c #000000",
"`W c #000000",
"`X c #000000",
"`Y c #000000",
"`Z c #000000",
"`0 c #000000",
"`1 c #000000",
"`2 c #000000",
"`3 c #000000",
"`4 c #000000",
"`5 c #000000",
"`6 c #000000",
"`7 c #000000",
"`8 c #000000",
".` c #000000",
".. c #000000",
".# c #000000",
".a c #000000",
".b c #000000",
".c c #000000",
".d c #000000",
".e c #000000",
".f c #000000",
".g c #000000",
".h c #000000",
".i c #000000",
".j c #000000",
".k c #000000",
".l c #000000",
".m c #000000",
".n c #000000",
".o c #000000",
".p c #000000",
".q c #000000",
".r c #000000",
".s c #000000",
".t c #000000",
".u c #000000",
".v c #000000",
".w c #000000",
".x c #000000",
".y c #000000",
".z c #000000",
".A c #000000",
".B c #000000",
".C c #000000",
".D c #000000",
".E c #000000",
".F c #000000",
".G c #000000",
".H c #000000",
".I c #000000",
".J c #000000",
".K c #000000",
".L c #000000",
".M c #000000",
".N c #000000",
".O c #000000",
".P c #000000",
".Q c #000000",
".R c #000000",
".S c #000000",
".T c #000000",
".U c #000000",
".V c #000000",
".W c #000000",
".X c #000000",
".Y c #000000",
".Z c #000000",
".0 c #000000",
".1 c #000000",
".2 c #000000",
".3 c #000000",
".4 c #000000",
".5 c #000000",
".6 c #000000",
".7 c #000000",
".8 c #000000",
"#` c #000000",
"#. c #000000",
"## c #000000",
"#a c #000000",
"#b c #000000",
"#c c #000000",
"#d c #000000",
"#e c #000000",
"#f c #000000",
"#g c #000000",
"#h c #000000",
"#i c #000000",
"#j c #000000",
"#k c #000000",
"#l c #000000",
"#m c #000000",
"#n c #000000",
"#o c #000000",
"#p c #000000",
"#q c #000000",
"#r c #000000",
"#s c #000000",
"#t c #000000",
"#u c #000000",
"#v c #000000",
"#w c #000000",
"#x c #000000",
"#y c #000000",
"#z c #000000",
"#A c #000000",
"#B c #000000",
"#C c #000000",
"#D c #000000",
"#E c #000000",
"#F c #000000",
"#G c #000000",
"#H c #000000",
"#I c #000000",
"#J c #000000",
"#K c #000000",
"#L c #000000",
"#M c #000000",
"#N c #000000",
"#O c #000000",
"#P c #000000",
"#Q c #000000",
"#R c #000000",
"#S c #000000",
"#T c #000000",
"#U c #000000",
"#V c #000000",
"#W c #000000",
"#X c #000000",
"#Y c #000000",
"#Z c #000000",
"#0 c #000000",
"#1 c #000000",
"#2 c #000000",
"#3 c #000000",
"#4 c #000000",
"#5 c #000000",
"#6 c #000000",
"#7 c #000000",
"#8 c #000000",
"a` c #000000",
"a. c #000000",
"a# c #000000",
"aa c #000000",
"ab c #000000",
"ac c #000000",
"ad c #000000",
"ae c #000000",
"af c #000000",
"ag c #000000",
"ah c #000000",
"ai c #000000",
"aj c #000000",
"ak c #000000",
"al c #000000",
"am c #000000",
"an c #000000",
"ao c #000000",
"ap c #000000",
"aq c #000000",
"ar c #000000",
"as c #000000",
"at c #000000",
"au c #000000",
"av c #000000",
"aw c #000000",
"ax c #000000",
"ay c #000000",
"az c #000000",
"aA c #000000",
"aB c #000000",
"aC c #000000",
"aD c #000000",
"aE c #000000",
"aF c #000000",
"aG c #000000",
"aH c #000000",
"aI c #000000",
"aJ c #000000",
"aK c #000000",
"aL c #000000",
"aM c #000000",
"aN c #000000",
"aO c #000000",
"aP c #000000",
"aQ c #000000",
"aR c #000000",
"aS c #000000",
"aT c #000000",
"aU c #000000",
"aV c #000000",
"aW c #000000",
"aX c #000000",
"aY c #000000",
"aZ c #000000",
"a0 c #000000",
"a1 c #000000",
"a2 c #000000",
"a3 c #000000",
"a4 c #000000",
"a5 c #000000",
"a6 c #000000",
"a7 c #000000",
"a8 c #000000",
/* pixels */
"`````````````````````````````.`.````````````````````````````````",
"```````````````````````````.`.`````````````````#````````````````",
"```a`a`a`a`a`a`a`a`a`a`a`.`.`````````````#`b`b`b`b`c`d`e````````",
"```a```````````````````.`.`.```````````b`b`c`c`c`f`f`g`e`e``````",
"```a`````````````````.`.`.```````````d`f`f`f`f`f`h`i`i`j`k`k````",
"```a`.`.```````````.`.`.`a`````````e`g`g`g`h`h`f`g`i`k`l`m`n`k``",
"```.`.`.`.```````.`.`.`.`a`````````j`j`i`i`i`#`d`d`o`p`p`p`p`n``",
"```.`.`.`.`.```.`.`.`.```a`````````k`k`l`q`e`d`````d`k`p`p`p`p``",
"```a`.`.`.`.`.`.`.`.`````a`````````p`p`p`p`j`d`````d`r`q`q`p`n``",
"```a```.`.`.`.`.`.`k`````a`````````n`p`p`q`q`e`#`#`i`q`q`q`q`l``",
"```a`````.`.`.`.`.```````a`````````k`p`q`q`q`s`s`s`s`s`s`q`q`k``",
"```a```````.`.`.`````````a```````````l`q`q`s`s`h`h`h`h`s`s`k````",
"```a`a`a`a`a`k`a`a`a`a`a`a`````````````k`s`s`h`h`t`t`h`h`k``````",
"```````````````````````````````````````````k`i`h`h`h`k``````````",
"````````````````````````````````````````````````````````````````",
"````````````````````````````````````````````````````````````````"
};
