/* XPM */
static char *desktop_xpm[] = {
/* width height num_colors chars_per_pixel */
"    32    16      256            2",
/* colors */
"`` c #000000",
"`. c #b7b7b7",
"`# c #c0c0c0",
"`a c #c7c7c7",
"`b c #d7d7d7",
"`c c #e7e7e7",
"`d c #b2deff",
"`e c #979797",
"`f c #008cb2",
"`g c #b2bdff",
"`h c #7fadff",
"`i c #4cb2fe",
"`j c #7fc8ff",
"`k c #4c8cfe",
"`l c #199cff",
"`m c #b2cdff",
"`n c #7f91ff",
"`o c #0083e5",
"`p c #a7a7a7",
"`q c #febf4c",
"`r c #808080",
"`s c #c8b2ff",
"`t c #d8b2ff",
"`u c #676767",
"`v c #878787",
"`w c #f7f7f7",
"`x c #000000",
"`y c #000000",
"`z c #000000",
"`A c #000000",
"`B c #000000",
"`C c #000000",
"`D c #000000",
"`E c #000000",
"`F c #000000",
"`G c #000000",
"`H c #000000",
"`I c #000000",
"`J c #000000",
"`K c #000000",
"`L c #000000",
"`M c #000000",
"`N c #000000",
"`O c #000000",
"`P c #000000",
"`Q c #000000",
"`R c #000000",
"`S c #000000",
"`T c #000000",
"`U c #000000",
"`V c #000000",
"`W c #000000",
"`X c #000000",
"`Y c #000000",
"`Z c #000000",
"`0 c #000000",
"`1 c #000000",
"`2 c #000000",
"`3 c #000000",
"`4 c #000000",
"`5 c #000000",
"`6 c #000000",
"`7 c #000000",
"`8 c #000000",
".` c #000000",
".. c #000000",
".# c #000000",
".a c #000000",
".b c #000000",
".c c #000000",
".d c #000000",
".e c #000000",
".f c #000000",
".g c #000000",
".h c #000000",
".i c #000000",
".j c #000000",
".k c #000000",
".l c #000000",
".m c #000000",
".n c #000000",
".o c #000000",
".p c #000000",
".q c #000000",
".r c #000000",
".s c #000000",
".t c #000000",
".u c #000000",
".v c #000000",
".w c #000000",
".x c #000000",
".y c #000000",
".z c #000000",
".A c #000000",
".B c #000000",
".C c #000000",
".D c #000000",
".E c #000000",
".F c #000000",
".G c #000000",
".H c #000000",
".I c #000000",
".J c #000000",
".K c #000000",
".L c #000000",
".M c #000000",
".N c #000000",
".O c #000000",
".P c #000000",
".Q c #000000",
".R c #000000",
".S c #000000",
".T c #000000",
".U c #000000",
".V c #000000",
".W c #000000",
".X c #000000",
".Y c #000000",
".Z c #000000",
".0 c #000000",
".1 c #000000",
".2 c #000000",
".3 c #000000",
".4 c #000000",
".5 c #000000",
".6 c #000000",
".7 c #000000",
".8 c #000000",
"#` c #000000",
"#. c #000000",
"## c #000000",
"#a c #000000",
"#b c #000000",
"#c c #000000",
"#d c #000000",
"#e c #000000",
"#f c #000000",
"#g c #000000",
"#h c #000000",
"#i c #000000",
"#j c #000000",
"#k c #000000",
"#l c #000000",
"#m c #000000",
"#n c #000000",
"#o c #000000",
"#p c #000000",
"#q c #000000",
"#r c #000000",
"#s c #000000",
"#t c #000000",
"#u c #000000",
"#v c #000000",
"#w c #000000",
"#x c #000000",
"#y c #000000",
"#z c #000000",
"#A c #000000",
"#B c #000000",
"#C c #000000",
"#D c #000000",
"#E c #000000",
"#F c #000000",
"#G c #000000",
"#H c #000000",
"#I c #000000",
"#J c #000000",
"#K c #000000",
"#L c #000000",
"#M c #000000",
"#N c #000000",
"#O c #000000",
"#P c #000000",
"#Q c #000000",
"#R c #000000",
"#S c #000000",
"#T c #000000",
"#U c #000000",
"#V c #000000",
"#W c #000000",
"#X c #000000",
"#Y c #000000",
"#Z c #000000",
"#0 c #000000",
"#1 c #000000",
"#2 c #000000",
"#3 c #000000",
"#4 c #000000",
"#5 c #000000",
"#6 c #000000",
"#7 c #000000",
"#8 c #000000",
"a` c #000000",
"a. c #000000",
"a# c #000000",
"aa c #000000",
"ab c #000000",
"ac c #000000",
"ad c #000000",
"ae c #000000",
"af c #000000",
"ag c #000000",
"ah c #000000",
"ai c #000000",
"aj c #000000",
"ak c #000000",
"al c #000000",
"am c #000000",
"an c #000000",
"ao c #000000",
"ap c #000000",
"aq c #000000",
"ar c #000000",
"as c #000000",
"at c #000000",
"au c #000000",
"av c #000000",
"aw c #000000",
"ax c #000000",
"ay c #000000",
"az c #000000",
"aA c #000000",
"aB c #000000",
"aC c #000000",
"aD c #000000",
"aE c #000000",
"aF c #000000",
"aG c #000000",
"aH c #000000",
"aI c #000000",
"aJ c #000000",
"aK c #000000",
"aL c #000000",
"aM c #000000",
"aN c #000000",
"aO c #000000",
"aP c #000000",
"aQ c #000000",
"aR c #000000",
"aS c #000000",
"aT c #000000",
"aU c #000000",
"aV c #000000",
"aW c #000000",
"aX c #000000",
"aY c #000000",
"aZ c #000000",
"a0 c #000000",
"a1 c #000000",
"a2 c #000000",
"a3 c #000000",
"a4 c #000000",
"a5 c #000000",
"a6 c #000000",
"a7 c #000000",
"a8 c #000000",
/* pixels */
"```````````````````````````````````````````````````````.`.`.````",
"```````````````````````````````````````#`#`#`a`b`c`c`c`d`d`c`e``",
"```f`f`f`f`f`f`f`f`f`f`f`f`````````````c`g`h`h`i`i`i`i`i`j`d`e``",
"```f`````````````````````f`````````````c`k`k`i`l`k`i`i`i`i`m`e``",
"```f`````````````````````f`````````````a`h`n`k`o`k`k`i`i`i`j`p``",
"```f`````````````````````f`````````````#`h`k`k`o`l`k`k`i`i`h`p``",
"```f`````````````````````f`````````````.`h`p`q`k`o`l`k`k`k`i`p``",
"```f`````````````````````f`````````````p`g`r`r`o`o`o`o`l`l`k`.``",
"```f`````````````````````f`````````````p`g`h`a`o`o`o`o`o`o`k`a``",
"```f`````````````````````f`````````````p`s`k`e`o`o`o`l`i`h`p`a``",
"```f`````````````````````f```````````````t`u`u`i`h`g`c`a`p`e````",
"```f`````````````````````f```````````````s`a`c`s`a`a`a`v````````",
"```f`f`f`f`f`f`f`f`f`f`f`f```````````````e`e`v`.`w`c`c`a`#`a`e``",
"```````````````````````````````````````````p`.`b`b`b`a`b`#`e````",
"`````````````````````````````````````````#`b`b`b`#`p`e``````````",
"````````````````````````````````````````````````````````````````"
};
