/* XPM */
static char *folder_selected_xpm[] = {
/* width height num_colors chars_per_pixel */
"    32    16      256            2",
/* colors */
"`` c #000000",
"`. c #ff9a7f",
"`# c #ffb2b2",
"`a c #ff7f7f",
"`b c #d7d7d7",
"`c c #e7e7e7",
"`d c #f7f7f7",
"`e c #008cb2",
"`f c #c7c7c7",
"`g c #7fc8ff",
"`h c #fe724c",
"`i c #b2deff",
"`j c #b2eeff",
"`k c #7fe3ff",
"`l c #4cb2fe",
"`m c #fe4c4c",
"`n c #ff7f9a",
"`o c #ff4a19",
"`p c #ff1919",
"`q c #e50000",
"`r c #b2cdff",
"`s c #e50031",
"`t c #7fadff",
"`u c #4c8cfe",
"`v c #979797",
"`w c #a7a7a7",
"`x c #000000",
"`y c #000000",
"`z c #000000",
"`A c #000000",
"`B c #000000",
"`C c #000000",
"`D c #000000",
"`E c #000000",
"`F c #000000",
"`G c #000000",
"`H c #000000",
"`I c #000000",
"`J c #000000",
"`K c #000000",
"`L c #000000",
"`M c #000000",
"`N c #000000",
"`O c #000000",
"`P c #000000",
"`Q c #000000",
"`R c #000000",
"`S c #000000",
"`T c #000000",
"`U c #000000",
"`V c #000000",
"`W c #000000",
"`X c #000000",
"`Y c #000000",
"`Z c #000000",
"`0 c #000000",
"`1 c #000000",
"`2 c #000000",
"`3 c #000000",
"`4 c #000000",
"`5 c #000000",
"`6 c #000000",
"`7 c #000000",
"`8 c #000000",
".` c #000000",
".. c #000000",
".# c #000000",
".a c #000000",
".b c #000000",
".c c #000000",
".d c #000000",
".e c #000000",
".f c #000000",
".g c #000000",
".h c #000000",
".i c #000000",
".j c #000000",
".k c #000000",
".l c #000000",
".m c #000000",
".n c #000000",
".o c #000000",
".p c #000000",
".q c #000000",
".r c #000000",
".s c #000000",
".t c #000000",
".u c #000000",
".v c #000000",
".w c #000000",
".x c #000000",
".y c #000000",
".z c #000000",
".A c #000000",
".B c #000000",
".C c #000000",
".D c #000000",
".E c #000000",
".F c #000000",
".G c #000000",
".H c #000000",
".I c #000000",
".J c #000000",
".K c #000000",
".L c #000000",
".M c #000000",
".N c #000000",
".O c #000000",
".P c #000000",
".Q c #000000",
".R c #000000",
".S c #000000",
".T c #000000",
".U c #000000",
".V c #000000",
".W c #000000",
".X c #000000",
".Y c #000000",
".Z c #000000",
".0 c #000000",
".1 c #000000",
".2 c #000000",
".3 c #000000",
".4 c #000000",
".5 c #000000",
".6 c #000000",
".7 c #000000",
".8 c #000000",
"#` c #000000",
"#. c #000000",
"## c #000000",
"#a c #000000",
"#b c #000000",
"#c c #000000",
"#d c #000000",
"#e c #000000",
"#f c #000000",
"#g c #000000",
"#h c #000000",
"#i c #000000",
"#j c #000000",
"#k c #000000",
"#l c #000000",
"#m c #000000",
"#n c #000000",
"#o c #000000",
"#p c #000000",
"#q c #000000",
"#r c #000000",
"#s c #000000",
"#t c #000000",
"#u c #000000",
"#v c #000000",
"#w c #000000",
"#x c #000000",
"#y c #000000",
"#z c #000000",
"#A c #000000",
"#B c #000000",
"#C c #000000",
"#D c #000000",
"#E c #000000",
"#F c #000000",
"#G c #000000",
"#H c #000000",
"#I c #000000",
"#J c #000000",
"#K c #000000",
"#L c #000000",
"#M c #000000",
"#N c #000000",
"#O c #000000",
"#P c #000000",
"#Q c #000000",
"#R c #000000",
"#S c #000000",
"#T c #000000",
"#U c #000000",
"#V c #000000",
"#W c #000000",
"#X c #000000",
"#Y c #000000",
"#Z c #000000",
"#0 c #000000",
"#1 c #000000",
"#2 c #000000",
"#3 c #000000",
"#4 c #000000",
"#5 c #000000",
"#6 c #000000",
"#7 c #000000",
"#8 c #000000",
"a` c #000000",
"a. c #000000",
"a# c #000000",
"aa c #000000",
"ab c #000000",
"ac c #000000",
"ad c #000000",
"ae c #000000",
"af c #000000",
"ag c #000000",
"ah c #000000",
"ai c #000000",
"aj c #000000",
"ak c #000000",
"al c #000000",
"am c #000000",
"an c #000000",
"ao c #000000",
"ap c #000000",
"aq c #000000",
"ar c #000000",
"as c #000000",
"at c #000000",
"au c #000000",
"av c #000000",
"aw c #000000",
"ax c #000000",
"ay c #000000",
"az c #000000",
"aA c #000000",
"aB c #000000",
"aC c #000000",
"aD c #000000",
"aE c #000000",
"aF c #000000",
"aG c #000000",
"aH c #000000",
"aI c #000000",
"aJ c #000000",
"aK c #000000",
"aL c #000000",
"aM c #000000",
"aN c #000000",
"aO c #000000",
"aP c #000000",
"aQ c #000000",
"aR c #000000",
"aS c #000000",
"aT c #000000",
"aU c #000000",
"aV c #000000",
"aW c #000000",
"aX c #000000",
"aY c #000000",
"aZ c #000000",
"a0 c #000000",
"a1 c #000000",
"a2 c #000000",
"a3 c #000000",
"a4 c #000000",
"a5 c #000000",
"a6 c #000000",
"a7 c #000000",
"a8 c #000000",
/* pixels */
"`````````````````````````````.`#`.``````````````````````````````",
"```````````````````````````#`.`a`````````b`b`c`````b`b`c`d`d````",
"```e`e`e`e`e`e`e`e`e`e`#`.`a`a`````c`d`d`d`d`d`d`d`c`b`f`f`g`g`g",
"```a`.`.```````````````.`a`h```````d`d`d`c`b`b`f`f`i`i`g`g`g`g``",
"```e`a`a`a```````````.`h`h`````````d`f`f`b`j`j`j`j`i`k`g`g`g`l``",
"```e```m`a`n```````m`o`p`h`````````d`f`j`j`j`j`j`i`i`g`g`g`l`l``",
"```e```a`m`p`m`a`m`p`q`m`e`````````c`f`j`j`j`j`j`i`i`g`g`g`l`l``",
"```e`````p`q`p`p`p`q`q```e`````````b`r`i`j`j`j`i`i`g`g`g`l`l`l``",
"```e`````a`q`q`q`q`q`s```e`````````b`i`i`i`i`i`i`r`g`g`t`l`l`l``",
"```e```````q`q`p`p`q`````e`````````f`g`g`r`r`r`g`g`g`t`l`l`u`l``",
"```e```````m`p`p`p`m`````e`````````f`g`g`g`g`g`g`t`t`l`u`u`u`u``",
"```e`````````p`m`m```````e`````````f`t`t`t`t`t`t`l`u`u`u`u`u`t``",
"```e`e`e`e`e`h`o`h`e`e`e`e`````````f`l`l`l`l`u`u`u`u`u`v````````",
"```````````````````````````````````f`u`u`u`u`u`v````````````````",
"```````````````````````````````````w`u`v````````````````````````",
"````````````````````````````````````````````````````````````````"
};
