/* XPM */
static char *network_noselected_xpm[] = {
/* width height num_colors chars_per_pixel */
"    32    16      256            2",
/* colors */
"`` c #000000",
"`. c #808080",
"`# c #4cfeb2",
"`a c #00b28c",
"`b c #4cb2fe",
"`c c #008cb2",
"`d c #979797",
"`e c #00b23f",
"`f c #4cfe8c",
"`g c #7fc8ff",
"`h c #7fadff",
"`i c #00b265",
"`j c #777777",
"`k c #00e5e5",
"`l c #a7a7a7",
"`m c #b7b7b7",
"`n c #c0c0c0",
"`o c #c7c7c7",
"`p c #d7d7d7",
"`q c #4cfe66",
"`r c #b2bdff",
"`s c #7fffad",
"`t c #0083e5",
"`u c #4c8cfe",
"`v c #b2cdff",
"`w c #199cff",
"`x c #00b2b2",
"`y c #878787",
"`z c #008080",
"`A c #676767",
"`B c #c8b2ff",
"`C c #e7e7e7",
"`D c #000000",
"`E c #000000",
"`F c #000000",
"`G c #000000",
"`H c #000000",
"`I c #000000",
"`J c #000000",
"`K c #000000",
"`L c #000000",
"`M c #000000",
"`N c #000000",
"`O c #000000",
"`P c #000000",
"`Q c #000000",
"`R c #000000",
"`S c #000000",
"`T c #000000",
"`U c #000000",
"`V c #000000",
"`W c #000000",
"`X c #000000",
"`Y c #000000",
"`Z c #000000",
"`0 c #000000",
"`1 c #000000",
"`2 c #000000",
"`3 c #000000",
"`4 c #000000",
"`5 c #000000",
"`6 c #000000",
"`7 c #000000",
"`8 c #000000",
".` c #000000",
".. c #000000",
".# c #000000",
".a c #000000",
".b c #000000",
".c c #000000",
".d c #000000",
".e c #000000",
".f c #000000",
".g c #000000",
".h c #000000",
".i c #000000",
".j c #000000",
".k c #000000",
".l c #000000",
".m c #000000",
".n c #000000",
".o c #000000",
".p c #000000",
".q c #000000",
".r c #000000",
".s c #000000",
".t c #000000",
".u c #000000",
".v c #000000",
".w c #000000",
".x c #000000",
".y c #000000",
".z c #000000",
".A c #000000",
".B c #000000",
".C c #000000",
".D c #000000",
".E c #000000",
".F c #000000",
".G c #000000",
".H c #000000",
".I c #000000",
".J c #000000",
".K c #000000",
".L c #000000",
".M c #000000",
".N c #000000",
".O c #000000",
".P c #000000",
".Q c #000000",
".R c #000000",
".S c #000000",
".T c #000000",
".U c #000000",
".V c #000000",
".W c #000000",
".X c #000000",
".Y c #000000",
".Z c #000000",
".0 c #000000",
".1 c #000000",
".2 c #000000",
".3 c #000000",
".4 c #000000",
".5 c #000000",
".6 c #000000",
".7 c #000000",
".8 c #000000",
"#` c #000000",
"#. c #000000",
"## c #000000",
"#a c #000000",
"#b c #000000",
"#c c #000000",
"#d c #000000",
"#e c #000000",
"#f c #000000",
"#g c #000000",
"#h c #000000",
"#i c #000000",
"#j c #000000",
"#k c #000000",
"#l c #000000",
"#m c #000000",
"#n c #000000",
"#o c #000000",
"#p c #000000",
"#q c #000000",
"#r c #000000",
"#s c #000000",
"#t c #000000",
"#u c #000000",
"#v c #000000",
"#w c #000000",
"#x c #000000",
"#y c #000000",
"#z c #000000",
"#A c #000000",
"#B c #000000",
"#C c #000000",
"#D c #000000",
"#E c #000000",
"#F c #000000",
"#G c #000000",
"#H c #000000",
"#I c #000000",
"#J c #000000",
"#K c #000000",
"#L c #000000",
"#M c #000000",
"#N c #000000",
"#O c #000000",
"#P c #000000",
"#Q c #000000",
"#R c #000000",
"#S c #000000",
"#T c #000000",
"#U c #000000",
"#V c #000000",
"#W c #000000",
"#X c #000000",
"#Y c #000000",
"#Z c #000000",
"#0 c #000000",
"#1 c #000000",
"#2 c #000000",
"#3 c #000000",
"#4 c #000000",
"#5 c #000000",
"#6 c #000000",
"#7 c #000000",
"#8 c #000000",
"a` c #000000",
"a. c #000000",
"a# c #000000",
"aa c #000000",
"ab c #000000",
"ac c #000000",
"ad c #000000",
"ae c #000000",
"af c #000000",
"ag c #000000",
"ah c #000000",
"ai c #000000",
"aj c #000000",
"ak c #000000",
"al c #000000",
"am c #000000",
"an c #000000",
"ao c #000000",
"ap c #000000",
"aq c #000000",
"ar c #000000",
"as c #000000",
"at c #000000",
"au c #000000",
"av c #000000",
"aw c #000000",
"ax c #000000",
"ay c #000000",
"az c #000000",
"aA c #000000",
"aB c #000000",
"aC c #000000",
"aD c #000000",
"aE c #000000",
"aF c #000000",
"aG c #000000",
"aH c #000000",
"aI c #000000",
"aJ c #000000",
"aK c #000000",
"aL c #000000",
"aM c #000000",
"aN c #000000",
"aO c #000000",
"aP c #000000",
"aQ c #000000",
"aR c #000000",
"aS c #000000",
"aT c #000000",
"aU c #000000",
"aV c #000000",
"aW c #000000",
"aX c #000000",
"aY c #000000",
"aZ c #000000",
"a0 c #000000",
"a1 c #000000",
"a2 c #000000",
"a3 c #000000",
"a4 c #000000",
"a5 c #000000",
"a6 c #000000",
"a7 c #000000",
"a8 c #000000",
/* pixels */
"````````````````````````````````````````````````````````````````",
"```````````````````````````````````````.`#`a`a`b`c`d````````````",
"```c`c`c`c`c`c`c`c`c`c`c`c```````````e`e`f`g`h`f`i`e`j``````````",
"```c`k`k`k`k`k`k`k`k`k`k`c`````````i`e`f`g`g`h`l`l`m`n`o`p`p`m``",
"```c`k`k`k`k`k`k`k`k`k`k`c`````````e`q`g`g`r`r`h`h`h`h`h`b`g`p``",
"```c`k`k`k`k`k`k`k`k`k`k`c`````````a`f`s`g`r`h`t`t`u`u`b`b`b`v``",
"```c`k`k`k`k`k`k`k`k`k`k`c`````````b`f`s`g`r`h`t`t`w`u`u`b`b`v``",
"```c`k`k`k`k`k`k`k`k`k`k`c`````````b`a`e`f`h`r`t`t`t`w`u`u`u`v``",
"```c`k`k`k`k`k`k`k`k`k`k`c`````````.`x`e`e`y`r`t`t`t`t`w`w`u`r``",
"```c`k`k`k`k`k`k`k`k`k`k`c```````````u`e`e`.`v`t`t`t`t`t`t`t`h``",
"```c`k`k`k`k`k`k`k`k`k`k`c`````````````z`u`c`p`t`t`t`t`u`h`h`n``",
"```c`k`k`k`k`k`k`k`k`k`k`c```````````````y`A`B`y`d`r`v`B`d`l````",
"```c`c`c`c`c`c`c`c`c`c`c`c```````````````````m`n`d`p`p`C`l`l`l``",
"```````````````````````````````````````````````l`l`C`p`B`o`o`d``",
"`````````````````````````````````````````````m`p`p`o`l`l````````",
"````````````````````````````````````````````````````````````````"
};
