/* XPM */
static char *time_pnt_xpm[] = {
/* width height num_colors chars_per_pixel */
"    32    16      256            2",
/* colors */
"`` c #000000",
"`. c #7fc8ff",
"`# c #7fe3ff",
"`a c #b2cdff",
"`b c #b2deff",
"`c c #b2eeff",
"`d c #e7e7e7",
"`e c #008cb2",
"`f c #979797",
"`g c #808080",
"`h c #f7f7f7",
"`i c #c7c7c7",
"`j c #d7d7d7",
"`k c #878787",
"`l c #676767",
"`m c #4cb2fe",
"`n c #7fadff",
"`o c #575757",
"`p c #b7b7b7",
"`q c #4c8cfe",
"`r c #c0c0c0",
"`s c #199cff",
"`t c #0083e5",
"`u c #0066b2",
"`v c #000000",
"`w c #000000",
"`x c #000000",
"`y c #000000",
"`z c #000000",
"`A c #000000",
"`B c #000000",
"`C c #000000",
"`D c #000000",
"`E c #000000",
"`F c #000000",
"`G c #000000",
"`H c #000000",
"`I c #000000",
"`J c #000000",
"`K c #000000",
"`L c #000000",
"`M c #000000",
"`N c #000000",
"`O c #000000",
"`P c #000000",
"`Q c #000000",
"`R c #000000",
"`S c #000000",
"`T c #000000",
"`U c #000000",
"`V c #000000",
"`W c #000000",
"`X c #000000",
"`Y c #000000",
"`Z c #000000",
"`0 c #000000",
"`1 c #000000",
"`2 c #000000",
"`3 c #000000",
"`4 c #000000",
"`5 c #000000",
"`6 c #000000",
"`7 c #000000",
"`8 c #000000",
".` c #000000",
".. c #000000",
".# c #000000",
".a c #000000",
".b c #000000",
".c c #000000",
".d c #000000",
".e c #000000",
".f c #000000",
".g c #000000",
".h c #000000",
".i c #000000",
".j c #000000",
".k c #000000",
".l c #000000",
".m c #000000",
".n c #000000",
".o c #000000",
".p c #000000",
".q c #000000",
".r c #000000",
".s c #000000",
".t c #000000",
".u c #000000",
".v c #000000",
".w c #000000",
".x c #000000",
".y c #000000",
".z c #000000",
".A c #000000",
".B c #000000",
".C c #000000",
".D c #000000",
".E c #000000",
".F c #000000",
".G c #000000",
".H c #000000",
".I c #000000",
".J c #000000",
".K c #000000",
".L c #000000",
".M c #000000",
".N c #000000",
".O c #000000",
".P c #000000",
".Q c #000000",
".R c #000000",
".S c #000000",
".T c #000000",
".U c #000000",
".V c #000000",
".W c #000000",
".X c #000000",
".Y c #000000",
".Z c #000000",
".0 c #000000",
".1 c #000000",
".2 c #000000",
".3 c #000000",
".4 c #000000",
".5 c #000000",
".6 c #000000",
".7 c #000000",
".8 c #000000",
"#` c #000000",
"#. c #000000",
"## c #000000",
"#a c #000000",
"#b c #000000",
"#c c #000000",
"#d c #000000",
"#e c #000000",
"#f c #000000",
"#g c #000000",
"#h c #000000",
"#i c #000000",
"#j c #000000",
"#k c #000000",
"#l c #000000",
"#m c #000000",
"#n c #000000",
"#o c #000000",
"#p c #000000",
"#q c #000000",
"#r c #000000",
"#s c #000000",
"#t c #000000",
"#u c #000000",
"#v c #000000",
"#w c #000000",
"#x c #000000",
"#y c #000000",
"#z c #000000",
"#A c #000000",
"#B c #000000",
"#C c #000000",
"#D c #000000",
"#E c #000000",
"#F c #000000",
"#G c #000000",
"#H c #000000",
"#I c #000000",
"#J c #000000",
"#K c #000000",
"#L c #000000",
"#M c #000000",
"#N c #000000",
"#O c #000000",
"#P c #000000",
"#Q c #000000",
"#R c #000000",
"#S c #000000",
"#T c #000000",
"#U c #000000",
"#V c #000000",
"#W c #000000",
"#X c #000000",
"#Y c #000000",
"#Z c #000000",
"#0 c #000000",
"#1 c #000000",
"#2 c #000000",
"#3 c #000000",
"#4 c #000000",
"#5 c #000000",
"#6 c #000000",
"#7 c #000000",
"#8 c #000000",
"a` c #000000",
"a. c #000000",
"a# c #000000",
"aa c #000000",
"ab c #000000",
"ac c #000000",
"ad c #000000",
"ae c #000000",
"af c #000000",
"ag c #000000",
"ah c #000000",
"ai c #000000",
"aj c #000000",
"ak c #000000",
"al c #000000",
"am c #000000",
"an c #000000",
"ao c #000000",
"ap c #000000",
"aq c #000000",
"ar c #000000",
"as c #000000",
"at c #000000",
"au c #000000",
"av c #000000",
"aw c #000000",
"ax c #000000",
"ay c #000000",
"az c #000000",
"aA c #000000",
"aB c #000000",
"aC c #000000",
"aD c #000000",
"aE c #000000",
"aF c #000000",
"aG c #000000",
"aH c #000000",
"aI c #000000",
"aJ c #000000",
"aK c #000000",
"aL c #000000",
"aM c #000000",
"aN c #000000",
"aO c #000000",
"aP c #000000",
"aQ c #000000",
"aR c #000000",
"aS c #000000",
"aT c #000000",
"aU c #000000",
"aV c #000000",
"aW c #000000",
"aX c #000000",
"aY c #000000",
"aZ c #000000",
"a0 c #000000",
"a1 c #000000",
"a2 c #000000",
"a3 c #000000",
"a4 c #000000",
"a5 c #000000",
"a6 c #000000",
"a7 c #000000",
"a8 c #000000",
/* pixels */
"```````````````````````````````````````````.`.`#`#`.`.``````````",
"```````````````````````````````````````a`b`c`d`c`c`d`c`b`a``````",
"`````e`e`e`e`e`e`e`e`e`e`e`e`````````.`c`c`b`b`c`c`b`b`c`c`.````",
"`````e`````````````````````e```````.`c`b`b`f`d`f`d`d`g`a`b`c`.``",
"`````e`````````````````````e```````b`b`b`d`h`h`i`d`d`j`j`a`b`a``",
"`````e`````````````````````e`````.`b`b`d`k`h`h`l`j`d`d`k`j`a`b`.",
"`````e`````````````````````e`````m`.`.`h`h`h`h`l`i`d`d`j`i`.`#`m",
"`````e`````````````````````e`````m`.`a`d`h`h`h`l`i`h`h`d`j`n`.`m",
"`````e`````````````````````e`````m`m`b`f`h`h`d`k`o`l`o`o`p`.`m`m",
"`````e`````````````````````e`````q`m`a`d`h`h`d`d`d`j`j`i`i`n`m`q",
"`````e`````````````````````e`````n`m`.`f`d`h`d`d`j`j`j`k`r`n`m`n",
"`````e`````````````````````e```````q`m`a`h`f`d`d`d`j`k`i`.`m`s``",
"`````e`e`e`e`e`e`e`e`e`e`e`e```````n`s`m`a`j`h`f`i`j`i`.`m`s`n``",
"`````````````````````````````````````q`s`m`.`.`.`.`.`.`m`t`q````",
"```````````````````````````````````````n`t`t`m`m`m`m`t`t`n``````",
"```````````````````````````````````````````q`u`u`u`u`q``````````"
};
