/* XPM */
static char *time_pnt_selected_xpm[] = {
/* width height num_colors chars_per_pixel */
"    32    16      256            2",
/* colors */
"`` c #000000",
"`. c #ff9a7f",
"`# c #ffb2b2",
"`a c #7fc8ff",
"`b c #7fe3ff",
"`c c #ff7f7f",
"`d c #b2cdff",
"`e c #b2deff",
"`f c #b2eeff",
"`g c #e7e7e7",
"`h c #008cb2",
"`i c #fe724c",
"`j c #979797",
"`k c #808080",
"`l c #f7f7f7",
"`m c #c7c7c7",
"`n c #d7d7d7",
"`o c #fe4c4c",
"`p c #ff7f9a",
"`q c #ff4a19",
"`r c #ff1919",
"`s c #878787",
"`t c #676767",
"`u c #e50000",
"`v c #4cb2fe",
"`w c #7fadff",
"`x c #e50031",
"`y c #575757",
"`z c #b7b7b7",
"`A c #4c8cfe",
"`B c #c0c0c0",
"`C c #199cff",
"`D c #0083e5",
"`E c #0066b2",
"`F c #000000",
"`G c #000000",
"`H c #000000",
"`I c #000000",
"`J c #000000",
"`K c #000000",
"`L c #000000",
"`M c #000000",
"`N c #000000",
"`O c #000000",
"`P c #000000",
"`Q c #000000",
"`R c #000000",
"`S c #000000",
"`T c #000000",
"`U c #000000",
"`V c #000000",
"`W c #000000",
"`X c #000000",
"`Y c #000000",
"`Z c #000000",
"`0 c #000000",
"`1 c #000000",
"`2 c #000000",
"`3 c #000000",
"`4 c #000000",
"`5 c #000000",
"`6 c #000000",
"`7 c #000000",
"`8 c #000000",
".` c #000000",
".. c #000000",
".# c #000000",
".a c #000000",
".b c #000000",
".c c #000000",
".d c #000000",
".e c #000000",
".f c #000000",
".g c #000000",
".h c #000000",
".i c #000000",
".j c #000000",
".k c #000000",
".l c #000000",
".m c #000000",
".n c #000000",
".o c #000000",
".p c #000000",
".q c #000000",
".r c #000000",
".s c #000000",
".t c #000000",
".u c #000000",
".v c #000000",
".w c #000000",
".x c #000000",
".y c #000000",
".z c #000000",
".A c #000000",
".B c #000000",
".C c #000000",
".D c #000000",
".E c #000000",
".F c #000000",
".G c #000000",
".H c #000000",
".I c #000000",
".J c #000000",
".K c #000000",
".L c #000000",
".M c #000000",
".N c #000000",
".O c #000000",
".P c #000000",
".Q c #000000",
".R c #000000",
".S c #000000",
".T c #000000",
".U c #000000",
".V c #000000",
".W c #000000",
".X c #000000",
".Y c #000000",
".Z c #000000",
".0 c #000000",
".1 c #000000",
".2 c #000000",
".3 c #000000",
".4 c #000000",
".5 c #000000",
".6 c #000000",
".7 c #000000",
".8 c #000000",
"#` c #000000",
"#. c #000000",
"## c #000000",
"#a c #000000",
"#b c #000000",
"#c c #000000",
"#d c #000000",
"#e c #000000",
"#f c #000000",
"#g c #000000",
"#h c #000000",
"#i c #000000",
"#j c #000000",
"#k c #000000",
"#l c #000000",
"#m c #000000",
"#n c #000000",
"#o c #000000",
"#p c #000000",
"#q c #000000",
"#r c #000000",
"#s c #000000",
"#t c #000000",
"#u c #000000",
"#v c #000000",
"#w c #000000",
"#x c #000000",
"#y c #000000",
"#z c #000000",
"#A c #000000",
"#B c #000000",
"#C c #000000",
"#D c #000000",
"#E c #000000",
"#F c #000000",
"#G c #000000",
"#H c #000000",
"#I c #000000",
"#J c #000000",
"#K c #000000",
"#L c #000000",
"#M c #000000",
"#N c #000000",
"#O c #000000",
"#P c #000000",
"#Q c #000000",
"#R c #000000",
"#S c #000000",
"#T c #000000",
"#U c #000000",
"#V c #000000",
"#W c #000000",
"#X c #000000",
"#Y c #000000",
"#Z c #000000",
"#0 c #000000",
"#1 c #000000",
"#2 c #000000",
"#3 c #000000",
"#4 c #000000",
"#5 c #000000",
"#6 c #000000",
"#7 c #000000",
"#8 c #000000",
"a` c #000000",
"a. c #000000",
"a# c #000000",
"aa c #000000",
"ab c #000000",
"ac c #000000",
"ad c #000000",
"ae c #000000",
"af c #000000",
"ag c #000000",
"ah c #000000",
"ai c #000000",
"aj c #000000",
"ak c #000000",
"al c #000000",
"am c #000000",
"an c #000000",
"ao c #000000",
"ap c #000000",
"aq c #000000",
"ar c #000000",
"as c #000000",
"at c #000000",
"au c #000000",
"av c #000000",
"aw c #000000",
"ax c #000000",
"ay c #000000",
"az c #000000",
"aA c #000000",
"aB c #000000",
"aC c #000000",
"aD c #000000",
"aE c #000000",
"aF c #000000",
"aG c #000000",
"aH c #000000",
"aI c #000000",
"aJ c #000000",
"aK c #000000",
"aL c #000000",
"aM c #000000",
"aN c #000000",
"aO c #000000",
"aP c #000000",
"aQ c #000000",
"aR c #000000",
"aS c #000000",
"aT c #000000",
"aU c #000000",
"aV c #000000",
"aW c #000000",
"aX c #000000",
"aY c #000000",
"aZ c #000000",
"a0 c #000000",
"a1 c #000000",
"a2 c #000000",
"a3 c #000000",
"a4 c #000000",
"a5 c #000000",
"a6 c #000000",
"a7 c #000000",
"a8 c #000000",
/* pixels */
"```````````````````````````````.`#`````````a`a`b`b`a`a``````````",
"`````````````````````````````#`.`c`````d`e`f`g`f`f`g`f`e`d``````",
"`````h`h`h`h`h`h`h`h`h`h`#`.`c`c`````a`f`f`e`e`f`f`e`e`f`f`a````",
"`````c`.`.```````````````.`c`i`````a`f`e`e`j`g`j`g`g`k`d`e`f`a``",
"`````h`c`c`c```````````.`i`i```````e`e`e`g`l`l`m`g`g`n`n`d`e`d``",
"`````h```o`c`p```````o`q`r`i`````a`e`e`g`s`l`l`t`n`g`g`s`n`d`e`a",
"`````h```c`o`r`o`c`o`r`u`o`h`````v`a`a`l`l`l`l`t`m`g`g`n`m`a`b`v",
"`````h`````r`u`r`r`r`u`u```h`````v`a`d`g`l`l`l`t`m`l`l`g`n`w`a`v",
"`````h`````c`u`u`u`u`u`x```h`````v`v`e`j`l`l`g`s`y`t`y`y`z`a`v`v",
"`````h```````u`u`r`r`u`````h`````A`v`d`g`l`l`g`g`g`n`n`m`m`w`v`A",
"`````h```````o`r`r`r`o`````h`````w`v`a`j`g`l`g`g`n`n`n`s`B`w`v`w",
"`````h`````````r`o`o```````h```````A`v`d`l`j`g`g`g`n`s`m`a`v`C``",
"`````h`h`h`h`h`i`q`i`h`h`h`h```````w`C`v`d`n`l`j`m`n`m`a`v`C`w``",
"`````````````````````````````````````A`C`v`a`a`a`a`a`a`v`D`A````",
"```````````````````````````````````````w`D`D`v`v`v`v`D`D`w``````",
"```````````````````````````````````````````A`E`E`E`E`A``````````"
};
