/* XPM */
static char *time_pnt_hf_selected_xpm[] = {
/* width height num_colors chars_per_pixel */
"    32    16      256            2",
/* colors */
"`` c #000000",
"`. c #ffb2b2",
"`# c #7fc8ff",
"`a c #7fe3ff",
"`b c #b2cdff",
"`c c #b2deff",
"`d c #b2eeff",
"`e c #e7e7e7",
"`f c #008cb2",
"`g c #979797",
"`h c #808080",
"`i c #f7f7f7",
"`j c #c7c7c7",
"`k c #d7d7d7",
"`l c #878787",
"`m c #676767",
"`n c #4cb2fe",
"`o c #7fadff",
"`p c #575757",
"`q c #b7b7b7",
"`r c #4c8cfe",
"`s c #c0c0c0",
"`t c #199cff",
"`u c #0083e5",
"`v c #0066b2",
"`w c #000000",
"`x c #000000",
"`y c #000000",
"`z c #000000",
"`A c #000000",
"`B c #000000",
"`C c #000000",
"`D c #000000",
"`E c #000000",
"`F c #000000",
"`G c #000000",
"`H c #000000",
"`I c #000000",
"`J c #000000",
"`K c #000000",
"`L c #000000",
"`M c #000000",
"`N c #000000",
"`O c #000000",
"`P c #000000",
"`Q c #000000",
"`R c #000000",
"`S c #000000",
"`T c #000000",
"`U c #000000",
"`V c #000000",
"`W c #000000",
"`X c #000000",
"`Y c #000000",
"`Z c #000000",
"`0 c #000000",
"`1 c #000000",
"`2 c #000000",
"`3 c #000000",
"`4 c #000000",
"`5 c #000000",
"`6 c #000000",
"`7 c #000000",
"`8 c #000000",
".` c #000000",
".. c #000000",
".# c #000000",
".a c #000000",
".b c #000000",
".c c #000000",
".d c #000000",
".e c #000000",
".f c #000000",
".g c #000000",
".h c #000000",
".i c #000000",
".j c #000000",
".k c #000000",
".l c #000000",
".m c #000000",
".n c #000000",
".o c #000000",
".p c #000000",
".q c #000000",
".r c #000000",
".s c #000000",
".t c #000000",
".u c #000000",
".v c #000000",
".w c #000000",
".x c #000000",
".y c #000000",
".z c #000000",
".A c #000000",
".B c #000000",
".C c #000000",
".D c #000000",
".E c #000000",
".F c #000000",
".G c #000000",
".H c #000000",
".I c #000000",
".J c #000000",
".K c #000000",
".L c #000000",
".M c #000000",
".N c #000000",
".O c #000000",
".P c #000000",
".Q c #000000",
".R c #000000",
".S c #000000",
".T c #000000",
".U c #000000",
".V c #000000",
".W c #000000",
".X c #000000",
".Y c #000000",
".Z c #000000",
".0 c #000000",
".1 c #000000",
".2 c #000000",
".3 c #000000",
".4 c #000000",
".5 c #000000",
".6 c #000000",
".7 c #000000",
".8 c #000000",
"#` c #000000",
"#. c #000000",
"## c #000000",
"#a c #000000",
"#b c #000000",
"#c c #000000",
"#d c #000000",
"#e c #000000",
"#f c #000000",
"#g c #000000",
"#h c #000000",
"#i c #000000",
"#j c #000000",
"#k c #000000",
"#l c #000000",
"#m c #000000",
"#n c #000000",
"#o c #000000",
"#p c #000000",
"#q c #000000",
"#r c #000000",
"#s c #000000",
"#t c #000000",
"#u c #000000",
"#v c #000000",
"#w c #000000",
"#x c #000000",
"#y c #000000",
"#z c #000000",
"#A c #000000",
"#B c #000000",
"#C c #000000",
"#D c #000000",
"#E c #000000",
"#F c #000000",
"#G c #000000",
"#H c #000000",
"#I c #000000",
"#J c #000000",
"#K c #000000",
"#L c #000000",
"#M c #000000",
"#N c #000000",
"#O c #000000",
"#P c #000000",
"#Q c #000000",
"#R c #000000",
"#S c #000000",
"#T c #000000",
"#U c #000000",
"#V c #000000",
"#W c #000000",
"#X c #000000",
"#Y c #000000",
"#Z c #000000",
"#0 c #000000",
"#1 c #000000",
"#2 c #000000",
"#3 c #000000",
"#4 c #000000",
"#5 c #000000",
"#6 c #000000",
"#7 c #000000",
"#8 c #000000",
"a` c #000000",
"a. c #000000",
"a# c #000000",
"aa c #000000",
"ab c #000000",
"ac c #000000",
"ad c #000000",
"ae c #000000",
"af c #000000",
"ag c #000000",
"ah c #000000",
"ai c #000000",
"aj c #000000",
"ak c #000000",
"al c #000000",
"am c #000000",
"an c #000000",
"ao c #000000",
"ap c #000000",
"aq c #000000",
"ar c #000000",
"as c #000000",
"at c #000000",
"au c #000000",
"av c #000000",
"aw c #000000",
"ax c #000000",
"ay c #000000",
"az c #000000",
"aA c #000000",
"aB c #000000",
"aC c #000000",
"aD c #000000",
"aE c #000000",
"aF c #000000",
"aG c #000000",
"aH c #000000",
"aI c #000000",
"aJ c #000000",
"aK c #000000",
"aL c #000000",
"aM c #000000",
"aN c #000000",
"aO c #000000",
"aP c #000000",
"aQ c #000000",
"aR c #000000",
"aS c #000000",
"aT c #000000",
"aU c #000000",
"aV c #000000",
"aW c #000000",
"aX c #000000",
"aY c #000000",
"aZ c #000000",
"a0 c #000000",
"a1 c #000000",
"a2 c #000000",
"a3 c #000000",
"a4 c #000000",
"a5 c #000000",
"a6 c #000000",
"a7 c #000000",
"a8 c #000000",
/* pixels */
"```````````````````````````````.`.`````````#`#`a`a`#`#``````````",
"`````````````````````````````.`.```````b`c`d`e`d`d`e`d`c`b``````",
"`````f`f`f`f`f`f`f`f`f`f`f`.`.```````#`d`d`c`c`d`d`c`c`d`d`#````",
"`````f```````````````````.`.`.`````#`d`c`c`g`e`g`e`e`h`b`c`d`#``",
"`````f`````````````````.`.`.```````c`c`c`e`i`i`j`e`e`k`k`b`c`b``",
"`````f`.`.```````````.`.`.`f`````#`c`c`e`l`i`i`m`k`e`e`l`k`b`c`#",
"`````.`.`.`.```````.`.`.`.`f`````n`#`#`i`i`i`i`m`j`e`e`k`j`#`a`n",
"`````.`.`.`.`.```.`.`.`.```f`````n`#`b`e`i`i`i`m`j`i`i`e`k`o`#`n",
"`````f`.`.`.`.`.`.`.`.`````f`````n`n`c`g`i`i`e`l`p`m`p`p`q`#`n`n",
"`````f```.`.`.`.`.`.`g`````f`````r`n`b`e`i`i`e`e`e`k`k`j`j`o`n`r",
"`````f`````.`.`.`.`.```````f`````o`n`#`g`e`i`e`e`k`k`k`l`s`o`n`o",
"`````f```````.`.`.`````````f```````r`n`b`i`g`e`e`e`k`l`j`#`n`t``",
"`````f`f`f`f`f`g`f`f`f`f`f`f```````o`t`n`b`k`i`g`j`k`j`#`n`t`o``",
"`````````````````````````````````````r`t`n`#`#`#`#`#`#`n`u`r````",
"```````````````````````````````````````o`u`u`n`n`n`n`u`u`o``````",
"```````````````````````````````````````````r`v`v`v`v`r``````````"
};
