/* XPM */
static char *config_xpm[] = {
/* width height num_colors chars_per_pixel */
"    16    16      256            2",
/* colors */
"`` c #000000",
"`. c #748e58",
"`# c #acc287",
"`a c #dce6c4",
"`b c #bc825c",
"`c c #dcc69c",
"`d c #8ca25c",
"`e c #b4c2bc",
"`f c #4c4671",
"`g c #f4f6d6",
"`h c #aca2a4",
"`i c #bcaa84",
"`j c #a48e7c",
"`k c #dce2e4",
"`l c #e4aa84",
"`m c #e4d0cc",
"`n c #342251",
"`o c #c4d29c",
"`p c #7482ac",
"`q c #94b26c",
"`r c #c4d2c4",
"`s c #e4d6a4",
"`t c #646a94",
"`u c #c4c6a4",
"`v c #ecf2f4",
"`w c #a4b2ac",
"`x c #240e3b",
"`y c #f4e2b0",
"`z c #b4aa9c",
"`A c #dcae94",
"`B c #949294",
"`C c #8ca684",
"`D c #b4c2a4",
"`E c #eceaf4",
"`F c #ecb29c",
"`G c #a4b2d4",
"`H c #f4c4ac",
"`I c #ccc6c4",
"`J c #6c6244",
"`K c #ccd2dc",
"`L c #fffaf0",
"`M c #3c325c",
"`N c #dc9274",
"`O c #f4d2c4",
"`P c #9c7e5c",
"`Q c #ffe2ca",
"`R c #948e8c",
"`S c #b4ca94",
"`T c #8caa64",
"`U c #b4c2dc",
"`V c #c4b6a4",
"`W c #8c8a9c",
"`X c #a4b298",
"`Y c #14061c",
"`Z c #e4eae8",
"`0 c #f4a284",
"`1 c #6c76a0",
"`2 c #fff2f0",
"`3 c #2c1a46",
"`4 c #acbadc",
"`5 c #fffae3",
"`6 c #dcdde4",
"`7 c #7c8cb4",
"`8 c #d4beb4",
".` c #8492b4",
".. c #f4ceb7",
".# c #5c5684",
".a c #849d5c",
".b c #bcc694",
".c c #e4eac7",
".d c #ccae8c",
".e c #9c9eac",
".f c #342a54",
".g c #ccdcac",
".h c #d4dac8",
".i c #ecd29c",
".j c #9cae90",
".k c #eceef2",
".l c #ecbaa4",
".m c #e49a7c",
".n c #ffeac8",
".o c #a4ba7c",
".p c #ffaa8c",
".q c #5c5e88",
".r c #b4c29c",
".s c #dcca9c",
".t c #c4cabc",
".u c #544e77",
".v c #fff2da",
".w c #9ca2c4",
".x c #dce2f4",
".y c #c4cea4",
".z c #f4f2ef",
".A c #acbaa4",
".B c #d4aea4",
".C c #bccaa8",
".D c #d4daec",
".E c #94aa6c",
".F c #747ea4",
".G c #f4dad4",
".H c #849ac4",
".I c #6c6284",
".J c #0c0615",
".K c #7c9274",
".L c #bcb2a0",
".M c #ccd5d4",
".N c #e4dabc",
".O c #2c1644",
".P c #94a691",
".Q c #b4b6cc",
".R c #443a64",
".S c #747698",
".T c #dcdef0",
".U c #848ab0",
".V c #eceece",
".W c #a4ba9c",
".X c #646288",
".Y c #f4f3ff",
".Z c #94ac74",
".0 c #7c9260",
".1 c #b4c48c",
".2 c #c49684",
".3 c #8ca271",
".4 c #bcc2bc",
".5 c #b4966c",
".6 c #dcd2bc",
".7 c #2c1244",
".8 c #ffe6bc",
"#` c #dcb68c",
"#. c #847e9c",
"## c #8c9e89",
"#a c #cccee8",
"#b c #c4cee4",
"#c c #eccabc",
"#d c #a49a94",
"#e c #d49674",
"#f c #ecc6a4",
"#g c #ec9674",
"#h c #ffdac1",
"#i c #9caacc",
"#j c #d4caa4",
"#k c #1c0e34",
"#l c #9c9ec4",
"#m c #d4c29f",
"#n c #ffb294",
"#o c #ffba9c",
"#p c #f49e84",
"#q c #949ec4",
"#r c #c4c6dc",
"#s c #e4c2b4",
"#t c #9c9294",
"#u c #ccbab4",
"#v c #6c729c",
"#w c #d4cecc",
"#x c #a4aaa4",
"#y c #bcb294",
"#z c #cc9e84",
"#A c #9496ac",
"#B c #ccd6ac",
"#C c #f4e8e4",
"#D c #d4d2dc",
"#E c #1c0a2c",
"#F c #e4dad4",
"#G c #b4beb0",
"#H c #ecdaa4",
"#I c #d4b6ac",
"#J c #ccaea4",
"#K c #f4eeec",
"#L c #e4e6e7",
"#M c #9cb574",
"#N c #94a67c",
"#O c #f4b694",
"#P c #acb2d1",
"#Q c #ffc2a4",
"#R c #443664",
"#S c #e48e6c",
"#T c #bcca94",
"#U c #ccba9c",
"#V c #948e94",
"#W c #ffa284",
"#X c #341e4c",
"#Y c #b4bad4",
"#Z c #dcbaac",
"#0 c #8c96bc",
"#1 c #ffcdb4",
"#2 c #3c2a58",
"#3 c #d4daac",
"#4 c #ec9c80",
"#5 c #acbe84",
"#6 c #e4e6ff",
"#7 c #8c9cc0",
"#8 c #4c3e6c",
"a` c #e4d6b8",
"a. c #dce2d4",
"a# c #7c84ac",
"aa c #f4e6bc",
"ab c #dcae9c",
"ac c #b4c4b4",
"ad c #ccd4ec",
"ae c #ffffff",
"af c #bcc6dc",
"ag c #ffead4",
"ah c #e4ce9c",
"ai c #fff6e4",
"aj c #747aa4",
"ak c #a4aecc",
"al c #0c000c",
"am c #ecaa8c",
"an c #ccd2c0",
"ao c #a49ea4",
"ap c #c4b29c",
"aq c #6c6a94",
"ar c #e4eaf4",
"as c #eceeff",
"at c #c4cacc",
"au c #c4ceb4",
"av c #acbab4",
"aw c #bccab4",
"ax c #acba9c",
"ay c #4c4a74",
"az c #342654",
"aA c #c4d6a4",
"aB c #a4b6a4",
"aC c #24123c",
"aD c #dcb28c",
"aE c #ffe6cc",
"aF c #140a24",
"aG c #fff6ec",
"aH c #2c1e4c",
"aI c #e4eecc",
"aJ c #ffeecc",
"aK c #a4be84",
"aL c #ffae92",
"aM c #5c628c",
"aN c #b4c694",
"aO c #54527c",
"aP c #fff6dc",
"aQ c #9ca6cc",
"aR c #f4f6f4",
"aS c #d4dee4",
"aT c #94ae6a",
"aU c #443e6c",
"aV c #848eac",
"aW c #8ca674",
"aX c #bcc6c1",
"aY c #ffdec4",
"aZ c #ffb69c",
"a0 c #ffbea4",
"a1 c #94aa84",
"a2 c #acb6d4",
"a3 c #ffc6ac",
"a4 c #bcce9c",
"a5 c #ffa687",
"a6 c #b4bed9",
"a7 c #3c2e5c",
"a8 c #d4deb4",
/* pixels */
"`````````````3#k.J``````````````",
"```````````3.naJ`V.X`n`x.J``````",
"````````.J#taeaeae.G#caJ.L.X#X.J",
"````````.7.nae`L`Q..`Q..#saea6`x",
"``````al#.aeaeaR#4.vaE.v`HaR#7`x",
"```````x`y.h`S.tam#1#1#1a0.m.X#E",
"``````aq`L`Z.c#m#p#OaL.pa5.k.R`Y",
"`````x.i.V`5`5.c`D.ya5`J#S#w#X``",
"````.#aeaBaWa8#3a4#5`b.4.Yas`x``",
"```x`cae`Lax.1`#.o`q.aaT.M#a`x``",
"```faG`L.kaT.3`X#B`T.M`wasak`x``",
"aFak`6`LaRac.kaR#G`T#6.Y.Ya#`x``",
"`Y`x#2.X#0aka6.D`6aXasasas.q#E``",
"````aF`x`x`x`xaz.#`7#7a2`G#R`Y``",
"```````````````Y`x`x`x`x#X`x````",
"````````````````````````.J``````"
};
