/* XPM */
static char *filter_xpm[] = {
/* width height num_colors chars_per_pixel */
"    16    16      256            2",
/* colors */
"`` c #000000",
"`. c #64823c",
"`# c #acc274",
"`a c #bcc2a4",
"`b c #ece2a4",
"`c c #aca254",
"`d c #dce2d4",
"`e c #7c869c",
"`f c #dcd6a4",
"`g c #144214",
"`h c #a49eb4",
"`i c #ecf2dc",
"`j c #c4d2a4",
"`k c #d4c644",
"`l c #849e54",
"`m c #4c6e24",
"`n c #acb694",
"`o c #f4f2ec",
"`p c #c4c6d4",
"`q c #9c968c",
"`r c #e4da6c",
"`s c #0c220c",
"`t c #b4b6cc",
"`u c #c4b244",
"`v c #f4e2f4",
"`w c #94aa5c",
"`x c #a4b274",
"`y c #dcce70",
"`z c #2c5614",
"`A c #ccd2dc",
"`B c #bcbacc",
"`C c #848284",
"`D c #bccaa4",
"`E c #f4e6a4",
"`F c #dcd2ec",
"`G c #7c7a74",
"`H c #e4ead8",
"`I c #fff2d4",
"`J c #001200",
"`K c #848ec1",
"`L c #f4faed",
"`M c #949abc",
"`N c #bcce88",
"`O c #ecfad5",
"`P c #748e44",
"`Q c #ccc6c4",
"`R c #5c7a34",
"`S c #cccacc",
"`T c #0c320c",
"`U c #9caa78",
"`V c #bcc2bf",
"`W c #dce6bc",
"`X c #e4e2e8",
"`Y c #e4d24c",
"`Z c #dcdada",
"`0 c #a4aa7c",
"`1 c #ece28c",
"`2 c #b4bad4",
"`3 c #a4ba84",
"`4 c #3c621c",
"`5 c #d4d2ec",
"`6 c #fffaf4",
"`7 c #9c9ebc",
"`8 c #dceac7",
".` c #000a00",
".. c #b4c294",
".# c #8c8ea4",
".a c #244e14",
".b c #acaaac",
".c c #f4f2e4",
".d c #ccdaac",
".e c #94a668",
".f c #bcbea8",
".g c #acb2df",
".h c #eceede",
".i c #dcce8c",
".j c #bcbae4",
".k c #7c9648",
".l c #dcca64",
".m c #5c762c",
".n c #c4c2e7",
".o c #9cb260",
".p c #a4b67f",
".q c #d4dad4",
".r c #0c3a0c",
".s c #ecdef4",
".t c #c4c2b4",
".u c #e4e2d9",
".v c #7c8aac",
".w c #dcdac4",
".x c #244a14",
".y c #e4ce3c",
".z c #547628",
".A c #e4d66c",
".B c #d4d2d4",
".C c #f4eebc",
".D c #001a00",
".E c #8c92bc",
".F c #e4e2c8",
".G c #e4daf4",
".H c #b4a664",
".I c #fffaff",
".J c #b4b2e4",
".K c #eceaec",
".L c #b4ca7c",
".M c #1c4213",
".N c #ecf6e4",
".O c #8ca274",
".P c #b4b6b4",
".Q c #f4f6f2",
".R c #9ca6b4",
".S c #ecda6c",
".T c #0c2a0c",
".U c #c4be7c",
".V c #94aa6c",
".W c #3c5e1c",
".X c #c4bed4",
".Y c #849654",
".Z c #cccac4",
".0 c #747a9c",
".1 c #e4eed8",
".2 c #8c9ad0",
".3 c #c4d29c",
".4 c #f4fadf",
".5 c #7c8e4c",
".6 c #647e38",
".7 c #cccaec",
".8 c #9cb284",
"#` c #c4c2bc",
"#. c #9c925c",
"## c #a4aadc",
"#a c #bcae48",
"#b c #949eb4",
"#c c #ccba44",
"#d c #a4a6d4",
"#e c #ccd2c4",
"#f c #14120c",
"#g c #140e0c",
"#h c #9ca2d9",
"#i c #b4ae7c",
"#j c #bcca9c",
"#k c #7c82ac",
"#l c #c4babc",
"#m c #747eac",
"#n c #f4eeb4",
"#o c #9ca67c",
"#p c #e4daa4",
"#q c #b4b6a4",
"#r c #ecd65c",
"#s c #f4e69a",
"#t c #d4deb4",
"#u c #fff2cc",
"#v c #acaecc",
"#w c #a4a6bc",
"#x c #d4dae4",
"#y c #6c8638",
"#z c #ccd6ac",
"#A c #dcca40",
"#B c #8c9e54",
"#C c #547229",
"#D c #ccc2dc",
"#E c #e4d26c",
"#F c #c4ceac",
"#G c #e4d6ec",
"#H c #c4d28c",
"#I c #acbe8c",
"#J c #44621c",
"#K c #94929c",
"#L c #ccc6ea",
"#M c #143a0c",
"#N c #f4eef4",
"#O c #7c7e94",
"#P c #949ed4",
"#Q c #d4be3c",
"#R c #0c0600",
"#S c #dcdab4",
"#T c #345614",
"#U c #bcbed4",
"#V c #8492cc",
"#W c #dce2cc",
"#X c #e4d65c",
"#Y c #dcdae4",
"#Z c #aca67c",
"#0 c #9ca2cc",
"#1 c #0c0a00",
"#2 c #2c5214",
"#3 c #ccdabc",
"#4 c #c4bee4",
"#5 c #e4dec4",
"#6 c #d4d2dc",
"#7 c #ecde7c",
"#8 c #d4caec",
"a` c #848694",
"a. c #e4eacc",
"a# c #acb684",
"aa c #acc284",
"ab c #bcc2b4",
"ac c #ece29c",
"ad c #7c9654",
"ae c #848aac",
"af c #e4ce4c",
"ag c #e4d67c",
"ah c #8c92cc",
"ai c #9c9eb4",
"aj c #acaedc",
"ak c #ecf6d7",
"al c #f4e6ff",
"am c #94ae60",
"an c #a4b670",
"ao c #bcbec4",
"ap c #dcd6f4",
"aq c #fff6dc",
"ar c #f4ffec",
"as c #74923c",
"at c #5c7e2c",
"au c #9cae74",
"av c #e4e6e9",
"aw c #dcdedc",
"ax c #fffff2",
"ay c #b4c68c",
"az c #f4f6df",
"aA c #ccdeb4",
"aB c #dcd294",
"aC c #c4c6b3",
"aD c #e4e6d7",
"aE c #d4d6cc",
"aF c #b4b6e2",
"aG c #eceef4",
"aH c #1c4614",
"aI c #ecde74",
"aJ c #b4ba9c",
"aK c #8ca25c",
"aL c #44661f",
"aM c #143e0f",
"aN c #000600",
"aO c #0c260c",
"aP c #bccea4",
"aQ c #f4eaa4",
"aR c #001600",
"aS c #0c360c",
"aT c #000e00",
"aU c #bcbee4",
"aV c #001e00",
"aW c #ffffff",
"aX c #0c2e0c",
"aY c #849a54",
"aZ c #7c924c",
"a0 c #c4c6bc",
"a1 c #345a14",
"a2 c #dce6cc",
"a3 c #acaa7c",
"a4 c #d4d6dc",
"a5 c #d4ceec",
"a6 c #acc27c",
"a7 c #f4f2f4",
"a8 c #b4b6d4",
/* pixels */
"``````````aR.xaSaV``````````````",
"``````````.MavaGaCad#T.raV``````",
"````````aR.eaWaWaW.I.F.KaC.5#TaR",
"````````aM`XaWaWaW.i#s`r`f.I#F.r",
"```````J`laWaWaW.Q`I#u#s#X#cau.r",
"``````.r.BaW.I`A.U`I`I#s#raC#y.T",
"````.`as`p.j.G.G`qag#saI#a`oaLaV",
"````.r`Qa4#8.s`va5#v`G#QaCax.x.`",
"``aNataW`o#4`5`F#LaF.E.h.4.N.r``",
"``aSabax`6`MaU#4aF##.2.h.4#3.r``",
"```m.Qaxaxao#####h#ma``H.4#I.r``",
"`s.L#t`Lar`H`e.b#e.1az.4.4aY.r``",
"aR.r.x#C`wa6ay#tak.4.4`O`O.6.T``",
"````aV`T.r.r.raHaL.k.V`3.8.WaR``",
"``````````````.D.T.r.r.raM.r````",
"````````````````````````aTaN````"
};
