/* XPM */
static char *plan_xpm[] = {
/* width height num_colors chars_per_pixel */
"    16    16      256            2",
/* colors */
"`` c #000000",
"`. c #6c865f",
"`# c #acc28c",
"`a c #d4c6dc",
"`b c #ac8e8c",
"`c c #244254",
"`d c #dce6c4",
"`e c #8ca668",
"`f c #647654",
"`g c #9cb26c",
"`h c #ece6f4",
"`i c #6482a4",
"`j c #a4c6dc",
"`k c #00222c",
"`l c #4c6454",
"`m c #acd6e4",
"`n c #a4b0bc",
"`o c #d4dab4",
"`p c #ecf6e2",
"`q c #848aa4",
"`r c #84a3cc",
"`s c #bcc2d4",
"`t c #d4d6e0",
"`u c #14323e",
"`v c #c4ced4",
"`w c #e4def4",
"`x c #7496ac",
"`y c #b4aad4",
"`z c #445a54",
"`A c #4c628c",
"`B c #8cb2c4",
"`C c #00141c",
"`D c #fffaff",
"`E c #7c8a9c",
"`F c #d4dee4",
"`G c #7c9864",
"`H c #d4eae4",
"`I c #9caea4",
"`J c #eceeec",
"`K c #ecf9ff",
"`L c #84aabc",
"`M c #cc8e9c",
"`N c #14273c",
"`O c #bccadc",
"`P c #b4b6c4",
"`Q c #947eb4",
"`R c #d4d6ff",
"`S c #001a24",
"`T c #64768c",
"`U c #24363c",
"`V c #3c5270",
"`W c #5c7a8c",
"`X c #344b4c",
"`Y c #5c705c",
"`Z c #c4dac4",
"`0 c #8496bc",
"`1 c #c4cede",
"`2 c #dcf2ec",
"`3 c #a4be8c",
"`4 c #eceeff",
"`5 c #c4b6dc",
"`6 c #6476ac",
"`7 c #6c868c",
"`8 c #c4d274",
".` c #d4d0e4",
".. c #a49ac4",
".# c #94a69c",
".a c #6c82b9",
".b c #acbecc",
".c c #7486bc",
".d c #94adbc",
".e c #ccc6dc",
".f c #748e5c",
".g c #0c2a34",
".h c #acb6d4",
".i c #546a9c",
".j c #7c967c",
".k c #e4e7ec",
".l c #f4fff4",
".m c #445a7c",
".n c #c4decc",
".o c #849eac",
".p c #e4cedc",
".q c #748ebc",
".r c #000a0f",
".s c #34464c",
".t c #e4eed0",
".u c #94ae7c",
".v c #9caecc",
".w c #f4f6ec",
".x c #dcd6e4",
".y c #f4f6ff",
".z c #0c1a2c",
".A c #cccee0",
".B c #acbca4",
".C c #f4eef4",
".D c #d4d2ff",
".E c #acc6ac",
".F c #2c444c",
".G c #8ca27c",
".H c #a4ba74",
".I c #6c8aa7",
".J c #9ccedc",
".K c #0c223b",
".L c #44627c",
".M c #94a6cc",
".N c #1c3241",
".O c #e4e2ec",
".P c #4c6594",
".Q c #94bacc",
".R c #0c1221",
".S c #dcdeff",
".T c #142e3c",
".U c #b4bed4",
".V c #dcdaff",
".W c #6c7e90",
".X c #243e50",
".Y c #3c567c",
".Z c #ccdad0",
".0 c #949ec4",
".1 c #748a70",
".2 c #b4c684",
".3 c #9c86bc",
".4 c #94a46c",
".5 c #eceaff",
".6 c #d4dad4",
".7 c #8ca4cc",
".8 c #bccabc",
"#` c #749abc",
"#. c #bca2d0",
"## c #b4d2b4",
"#a c #c4d2a4",
"#b c #b4a0cc",
"#c c #9c8ec4",
"#d c #9482bc",
"#e c #bcd6c4",
"#f c #b4c2c4",
"#g c #8c9e6c",
"#h c #c4aed4",
"#i c #5c72ac",
"#j c #849ec8",
"#k c #94b29c",
"#l c #b496cc",
"#m c #ac92c4",
"#n c #5c765c",
"#o c #9cb694",
"#p c #849e7c",
"#q c #9cb284",
"#r c #7c92c4",
"#s c #8cadcc",
"#t c #9cba9c",
"#u c #749274",
"#v c #647eb4",
"#w c #bcb2d4",
"#x c #c4bed4",
"#y c #cccadc",
"#z c #c4cad4",
"#A c #344a64",
"#B c #94aacc",
"#C c #e4e6cc",
"#D c #6c829c",
"#E c #ccd2c8",
"#F c #ecdae4",
"#G c #94b2c4",
"#H c #dceeec",
"#I c #c4c6dc",
"#J c #bcbad4",
"#K c #ccd8b4",
"#L c #849a8c",
"#M c #d4e2bc",
"#N c #cc96a4",
"#O c #6c8ab4",
"#P c #d4e2d4",
"#Q c #5c7674",
"#R c #ece2ec",
"#S c #2c3e44",
"#T c #546684",
"#U c #dcdeec",
"#V c #84966c",
"#W c #6c768c",
"#X c #e4f6f4",
"#Y c #dccedc",
"#Z c #7c8abc",
"#0 c #7c9264",
"#1 c #5c6ea4",
"#2 c #a4aed0",
"#3 c #54669c",
"#4 c #7c9ec4",
"#5 c #8c9ac4",
"#6 c #a4bea0",
"#7 c #acc294",
"#8 c #acc2dc",
"a` c #546654",
"a. c #8cb6d4",
"a# c #d4eaf4",
"aa c #5c769c",
"ab c #8c92bc",
"ac c #ccc2ec",
"ad c #e4e6ff",
"ae c #2c465c",
"af c #a4b684",
"ag c #6c86ac",
"ah c #c4c6ec",
"ai c #8caab4",
"aj c #7c8ec0",
"ak c #1c2e40",
"al c #bcbed2",
"am c #e4eedc",
"an c #a4ba84",
"ao c #4c627c",
"ap c #e4e2ff",
"aq c #a4b694",
"ar c #6c7eb4",
"as c #cccaec",
"at c #94b2d4",
"au c #000600",
"av c #acc684",
"aw c #eceaf0",
"ax c #002634",
"ay c #ecfae4",
"az c #bcc6cc",
"aA c #d4dae4",
"aB c #143644",
"aC c #445e52",
"aD c #ffffff",
"aE c #d4eeec",
"aF c #ecf2e8",
"aG c #d4daf4",
"aH c #001e28",
"aI c #647a94",
"aJ c #243a44",
"aK c #3c5672",
"aL c #ecf2f4",
"aM c #c4badf",
"aN c #647ab4",
"aO c #748abd",
"aP c #0c2e3c",
"aQ c #445e84",
"aR c #c4e2d4",
"aS c #000e14",
"aT c #9cb2d4",
"aU c #f4faea",
"aV c #dcdae8",
"aW c #f4faff",
"aX c #0c1e30",
"aY c #ccd2e1",
"aZ c #f4f2ff",
"a0 c #0c2634",
"a1 c #0c1624",
"a2 c #c4d6ac",
"a3 c #94aed4",
"a4 c #e4ead4",
"a5 c #c4cae4",
"a6 c #dce2e7",
"a7 c #dcd2e4",
"a8 c #244654",
/* pixels */
"````````````````````````````````",
"``````````.zan#p.s.K.R``````````",
"``````````aJaDaDaD`K`Z#u.F.K`C``",
"`````````C#o.e`haDaDaDaDaD`K`3.K",
"`````````N#XaDaDaDaV.e`JaDaD#C.K",
"```````k#Q#G.daY`DaDaDaDaD`taq.K",
"``aua8`m#j#2.0.aag#JaZaDaDaD#g.K",
"```u.J`JaD#b.`.S#Zaa.waD.A#I`Ya1",
"`C.I.UaL`J`D`DaG.V.c#faDaDaD`X.r",
"`k.a.yaD.k`Fa6.U.V.7aIal#I.w.N``",
"`k#v#.#w`D.4.B`4`Q.M`T.waU.t.K``",
"`k.iaA`D.C#RaZad.D`r#Wa6aUa2.K``",
"`Cae.a`J.p`wad.Va5.i.8aUaU#q.K``",
"``ax.maO`1#baM`1#i`f#Kay`p`G.K``",
"``auax`c`A#1.i.Y`k.Kak`z#0`Xa1``",
"```````kaxaxaxax`C``aSaX.K.K````"
};
